<svg width="1254" height="158" viewBox="0 0 1254 158" fill="none" xmlns="http://www.w3.org/2000/svg">
<rect width="1254" height="158" rx="8" fill="white"/>
<path d="M34.2756 67H39.8111V57.7188H43.8509L48.8111 67H54.9219L49.3608 56.8239C52.3395 55.5455 53.9886 52.9503 53.9886 49.3707C53.9886 44.1676 50.5497 40.8182 44.6051 40.8182H34.2756V67ZM39.8111 53.2699V45.3438H43.544C46.7401 45.3438 48.2869 46.7628 48.2869 49.3707C48.2869 51.9659 46.7401 53.2699 43.5696 53.2699H39.8111ZM66.4308 67.3835C71.2887 67.3835 74.5614 65.0185 75.3285 61.375L70.2915 61.0426C69.7418 62.5384 68.3356 63.3182 66.5202 63.3182C63.7972 63.3182 62.0714 61.5156 62.0714 58.5881V58.5753H75.4435V57.0795C75.4435 50.4062 71.4038 47.108 66.2134 47.108C60.435 47.108 56.6893 51.2116 56.6893 57.2713C56.6893 63.4972 60.3839 67.3835 66.4308 67.3835ZM62.0714 55.2003C62.1864 52.9631 63.8867 51.1733 66.3029 51.1733C68.668 51.1733 70.3043 52.8608 70.3171 55.2003H62.0714ZM84.5969 67.3707C87.4989 67.3707 89.3782 66.1051 90.337 64.277H90.4904V67H95.6552V53.7557C95.6552 49.0767 91.6921 47.108 87.32 47.108C82.6154 47.108 79.5217 49.358 78.7674 52.9375L83.8043 53.3466C84.1751 52.0426 85.3384 51.0838 87.2944 51.0838C89.1481 51.0838 90.2092 52.017 90.2092 53.6278V53.7045C90.2092 54.9702 88.8668 55.1364 85.4535 55.4688C81.5671 55.8267 78.0771 57.1307 78.0771 61.5156C78.0771 65.402 80.8512 67.3707 84.5969 67.3707ZM86.1566 63.6122C84.4819 63.6122 83.2802 62.8324 83.2802 61.3366C83.2802 59.8026 84.5458 59.0483 86.4634 58.7798C87.6523 58.6136 89.5955 58.3324 90.2475 57.8977V59.9815C90.2475 62.0398 88.5472 63.6122 86.1566 63.6122ZM107.116 67.3196C110.287 67.3196 111.936 65.4915 112.69 63.8551H112.92V67H118.289V40.8182H112.856V50.6619H112.69C111.961 49.0639 110.389 47.108 107.103 47.108C102.795 47.108 99.1516 50.4574 99.1516 57.2074C99.1516 63.7784 102.642 67.3196 107.116 67.3196ZM108.842 62.9858C106.17 62.9858 104.713 60.608 104.713 57.1818C104.713 53.7812 106.145 51.4418 108.842 51.4418C111.488 51.4418 112.971 53.679 112.971 57.1818C112.971 60.6847 111.463 62.9858 108.842 62.9858ZM126.129 74.3636C130.182 74.3636 132.33 72.2926 133.442 69.1222L141.074 47.3892L135.308 47.3636L131.205 61.7841H131L126.935 47.3636H121.207L128.251 67.5625L127.932 68.3935C127.216 70.2344 125.848 70.3239 123.93 69.7358L122.703 73.8011C123.483 74.1335 124.749 74.3636 126.129 74.3636ZM162.637 47.3636H158.943V42.6591H153.497V47.3636H150.812V51.4545H153.497V61.6818C153.471 65.5298 156.092 67.4347 160.042 67.2685C161.449 67.2173 162.446 66.9361 162.995 66.7571L162.139 62.7045C161.87 62.7557 161.295 62.8835 160.784 62.8835C159.697 62.8835 158.943 62.4744 158.943 60.9659V51.4545H162.637V47.3636ZM174.846 67.3835C180.804 67.3835 184.511 63.3054 184.511 57.2585C184.511 51.1733 180.804 47.108 174.846 47.108C168.889 47.108 165.181 51.1733 165.181 57.2585C165.181 63.3054 168.889 67.3835 174.846 67.3835ZM174.872 63.1648C172.123 63.1648 170.717 60.6463 170.717 57.2202C170.717 53.794 172.123 51.2628 174.872 51.2628C177.569 51.2628 178.975 53.794 178.975 57.2202C178.975 60.6463 177.569 63.1648 174.872 63.1648ZM203.62 67.3196C206.79 67.3196 208.44 65.4915 209.194 63.8551H209.424V67H214.793V40.8182H209.36V50.6619H209.194C208.465 49.0639 206.893 47.108 203.607 47.108C199.299 47.108 195.656 50.4574 195.656 57.2074C195.656 63.7784 199.146 67.3196 203.62 67.3196ZM205.346 62.9858C202.674 62.9858 201.217 60.608 201.217 57.1818C201.217 53.7812 202.648 51.4418 205.346 51.4418C207.992 51.4418 209.475 53.679 209.475 57.1818C209.475 60.6847 207.967 62.9858 205.346 62.9858ZM219.271 67H224.717V47.3636H219.271V67ZM222.007 44.8324C223.63 44.8324 224.96 43.5923 224.96 42.071C224.96 40.5625 223.63 39.3224 222.007 39.3224C220.396 39.3224 219.066 40.5625 219.066 42.071C219.066 43.5923 220.396 44.8324 222.007 44.8324ZM247.386 47.3636H241.621L237.555 61.4134H237.351L233.273 47.3636H227.52L234.385 67H240.521L247.386 47.3636ZM258.454 67.3835C263.312 67.3835 266.585 65.0185 267.352 61.375L262.315 61.0426C261.765 62.5384 260.359 63.3182 258.544 63.3182C255.821 63.3182 254.095 61.5156 254.095 58.5881V58.5753H267.467V57.0795C267.467 50.4062 263.427 47.108 258.237 47.108C252.458 47.108 248.713 51.2116 248.713 57.2713C248.713 63.4972 252.407 67.3835 258.454 67.3835ZM254.095 55.2003C254.21 52.9631 255.91 51.1733 258.326 51.1733C260.691 51.1733 262.328 52.8608 262.341 55.2003H254.095ZM279.353 67H284.799V47.3636H279.353V67ZM282.089 44.8324C283.712 44.8324 285.042 43.5923 285.042 42.071C285.042 40.5625 283.712 39.3224 282.089 39.3224C280.478 39.3224 279.148 40.5625 279.148 42.071C279.148 43.5923 280.478 44.8324 282.089 44.8324ZM294.608 55.6477C294.62 53.1165 296.129 51.6335 298.328 51.6335C300.514 51.6335 301.831 53.0653 301.818 55.4688V67H307.264V54.4972C307.264 49.9205 304.579 47.108 300.488 47.108C297.574 47.108 295.464 48.5398 294.582 50.8281H294.352V47.3636H289.162V67H294.608V55.6477ZM316.235 59.1506H321.08V58.7159C321.106 56.223 322.001 55.0597 324.021 53.8452C326.411 52.4261 327.971 50.5469 327.971 47.5426C327.971 43.0682 324.366 40.4602 319.29 40.4602C314.65 40.4602 310.866 42.8892 310.751 48.0028H315.967C316.043 45.919 317.59 44.8068 319.265 44.8068C320.991 44.8068 322.384 45.9574 322.384 47.7344C322.384 49.4091 321.17 50.5213 319.597 51.5185C317.45 52.8736 316.248 54.2415 316.235 58.7159V59.1506ZM318.754 67.3324C320.39 67.3324 321.809 65.9645 321.822 64.2642C321.809 62.5895 320.39 61.2216 318.754 61.2216C317.066 61.2216 315.673 62.5895 315.685 64.2642C315.673 65.9645 317.066 67.3324 318.754 67.3324Z" fill="black"/>
<path d="M48.4787 98.348H53.7841C53.7074 93.6818 49.8722 90.4602 44.0426 90.4602C38.3026 90.4602 34.0966 93.6307 34.1222 98.3864C34.1094 102.247 36.8324 104.459 41.2557 105.52L44.1065 106.236C46.9574 106.926 48.5426 107.744 48.5554 109.509C48.5426 111.426 46.7273 112.73 43.9148 112.73C41.0384 112.73 38.9673 111.401 38.7884 108.78H33.4318C33.5724 114.443 37.625 117.371 43.9787 117.371C50.3707 117.371 54.1293 114.315 54.142 109.521C54.1293 105.162 50.8438 102.848 46.2926 101.825L43.9403 101.263C41.6648 100.739 39.7599 99.8949 39.7983 98.0156C39.7983 96.3281 41.294 95.0881 44.0043 95.0881C46.6506 95.0881 48.2741 96.2898 48.4787 98.348ZM68.2077 97.3636H64.5131V92.6591H59.0671V97.3636H56.3825V101.455H59.0671V111.682C59.0415 115.53 61.6623 117.435 65.6126 117.268C67.0188 117.217 68.016 116.936 68.5657 116.757L67.7092 112.705C67.4407 112.756 66.8654 112.884 66.354 112.884C65.2674 112.884 64.5131 112.474 64.5131 110.966V101.455H68.2077V97.3636ZM77.3548 117.371C80.2567 117.371 82.136 116.105 83.0948 114.277H83.2482V117H88.413V103.756C88.413 99.0767 84.4499 97.108 80.0778 97.108C75.3732 97.108 72.2795 99.358 71.5252 102.938L76.5621 103.347C76.9329 102.043 78.0962 101.084 80.0522 101.084C81.9059 101.084 82.967 102.017 82.967 103.628V103.705C82.967 104.97 81.6246 105.136 78.2113 105.469C74.3249 105.827 70.8349 107.131 70.8349 111.516C70.8349 115.402 73.609 117.371 77.3548 117.371ZM78.9144 113.612C77.2397 113.612 76.038 112.832 76.038 111.337C76.038 109.803 77.3036 109.048 79.2212 108.78C80.4102 108.614 82.3533 108.332 83.0053 107.898V109.982C83.0053 112.04 81.305 113.612 78.9144 113.612ZM92.6381 117H98.0842V105.891C98.0842 103.474 99.8484 101.812 102.252 101.812C103.006 101.812 104.042 101.94 104.553 102.107V97.2741C104.067 97.1591 103.39 97.0824 102.84 97.0824C100.641 97.0824 98.8384 98.3608 98.1225 100.79H97.918V97.3636H92.6381V117ZM118.798 97.3636H115.103V92.6591H109.657V97.3636H106.972V101.455H109.657V111.682C109.631 115.53 112.252 117.435 116.202 117.268C117.609 117.217 118.606 116.936 119.156 116.757L118.299 112.705C118.031 112.756 117.455 112.884 116.944 112.884C115.857 112.884 115.103 112.474 115.103 110.966V101.455H118.798V97.3636ZM134.039 124.364C138.092 124.364 140.24 122.293 141.352 119.122L148.984 97.3892L143.218 97.3636L139.115 111.784H138.91L134.845 97.3636H129.118L136.162 117.562L135.842 118.393C135.126 120.234 133.758 120.324 131.841 119.736L130.613 123.801C131.393 124.134 132.659 124.364 134.039 124.364ZM159.975 117.384C165.933 117.384 169.64 113.305 169.64 107.259C169.64 101.173 165.933 97.108 159.975 97.108C154.018 97.108 150.31 101.173 150.31 107.259C150.31 113.305 154.018 117.384 159.975 117.384ZM160.001 113.165C157.252 113.165 155.846 110.646 155.846 107.22C155.846 103.794 157.252 101.263 160.001 101.263C162.698 101.263 164.104 103.794 164.104 107.22C164.104 110.646 162.698 113.165 160.001 113.165ZM185.773 108.639C185.786 111.273 183.984 112.653 182.028 112.653C179.969 112.653 178.64 111.209 178.627 108.895V97.3636H173.181V109.866C173.194 114.456 175.879 117.256 179.829 117.256C182.782 117.256 184.904 115.734 185.786 113.433H185.991V117H191.219V97.3636H185.773V108.639ZM195.576 117H201.022V105.891C201.022 103.474 202.786 101.812 205.189 101.812C205.944 101.812 206.979 101.94 207.49 102.107V97.2741C207.005 97.1591 206.327 97.0824 205.777 97.0824C203.578 97.0824 201.776 98.3608 201.06 100.79H200.855V97.3636H195.576V117ZM229.198 97.3636H225.299V96.0469C225.299 94.7173 225.836 93.9375 227.434 93.9375C228.086 93.9375 228.75 94.0781 229.185 94.2188L230.144 90.1278C229.466 89.9233 227.971 89.5909 226.296 89.5909C222.601 89.5909 219.853 91.6747 219.853 95.9446V97.3636H217.078V101.455H219.853V117H225.299V101.455H229.198V97.3636ZM232.525 117H237.971V105.891C237.971 103.474 239.735 101.812 242.138 101.812C242.893 101.812 243.928 101.94 244.44 102.107V97.2741C243.954 97.1591 243.276 97.0824 242.727 97.0824C240.528 97.0824 238.725 98.3608 238.009 100.79H237.805V97.3636H232.525V117ZM255.29 117.384C260.148 117.384 263.421 115.018 264.188 111.375L259.151 111.043C258.601 112.538 257.195 113.318 255.38 113.318C252.657 113.318 250.931 111.516 250.931 108.588V108.575H264.303V107.08C264.303 100.406 260.263 97.108 255.073 97.108C249.294 97.108 245.549 101.212 245.549 107.271C245.549 113.497 249.243 117.384 255.29 117.384ZM250.931 105.2C251.046 102.963 252.746 101.173 255.162 101.173C257.527 101.173 259.164 102.861 259.176 105.2H250.931ZM276.806 117.384C281.664 117.384 284.936 115.018 285.703 111.375L280.667 111.043C280.117 112.538 278.711 113.318 276.895 113.318C274.172 113.318 272.446 111.516 272.446 108.588V108.575H285.819V107.08C285.819 100.406 281.779 97.108 276.588 97.108C270.81 97.108 267.064 101.212 267.064 107.271C267.064 113.497 270.759 117.384 276.806 117.384ZM272.446 105.2C272.561 102.963 274.262 101.173 276.678 101.173C279.043 101.173 280.679 102.861 280.692 105.2H272.446ZM308.149 97.3636H304.455V92.6591H299.009V97.3636H296.324V101.455H299.009V111.682C298.983 115.53 301.604 117.435 305.554 117.268C306.96 117.217 307.957 116.936 308.507 116.757L307.651 112.705C307.382 112.756 306.807 112.884 306.295 112.884C305.209 112.884 304.455 112.474 304.455 110.966V101.455H308.149V97.3636ZM311.697 117H317.143V105.891C317.143 103.474 318.907 101.812 321.31 101.812C322.065 101.812 323.1 101.94 323.612 102.107V97.2741C323.126 97.1591 322.448 97.0824 321.898 97.0824C319.7 97.0824 317.897 98.3608 317.181 100.79H316.977V97.3636H311.697V117ZM326.427 117H331.873V97.3636H326.427V117ZM329.163 94.8324C330.787 94.8324 332.116 93.5923 332.116 92.071C332.116 90.5625 330.787 89.3224 329.163 89.3224C327.552 89.3224 326.223 90.5625 326.223 92.071C326.223 93.5923 327.552 94.8324 329.163 94.8324ZM341.835 117.371C344.737 117.371 346.616 116.105 347.575 114.277H347.729V117H352.893V103.756C352.893 99.0767 348.93 97.108 344.558 97.108C339.854 97.108 336.76 99.358 336.006 102.938L341.043 103.347C341.413 102.043 342.577 101.084 344.533 101.084C346.386 101.084 347.447 102.017 347.447 103.628V103.705C347.447 104.97 346.105 105.136 342.692 105.469C338.805 105.827 335.315 107.131 335.315 111.516C335.315 115.402 338.089 117.371 341.835 117.371ZM343.395 113.612C341.72 113.612 340.518 112.832 340.518 111.337C340.518 109.803 341.784 109.048 343.702 108.78C344.891 108.614 346.834 108.332 347.486 107.898V109.982C347.486 112.04 345.786 113.612 343.395 113.612ZM362.565 90.8182H357.119V117H362.565V90.8182ZM385.704 97.3636H382.009V92.6591H376.563V97.3636H373.879V101.455H376.563V111.682C376.538 115.53 379.158 117.435 383.109 117.268C384.515 117.217 385.512 116.936 386.062 116.757L385.205 112.705C384.937 112.756 384.362 112.884 383.85 112.884C382.763 112.884 382.009 112.474 382.009 110.966V101.455H385.704V97.3636ZM397.913 117.384C403.87 117.384 407.577 113.305 407.577 107.259C407.577 101.173 403.87 97.108 397.913 97.108C391.955 97.108 388.248 101.173 388.248 107.259C388.248 113.305 391.955 117.384 397.913 117.384ZM397.938 113.165C395.19 113.165 393.783 110.646 393.783 107.22C393.783 103.794 395.19 101.263 397.938 101.263C400.636 101.263 402.042 103.794 402.042 107.22C402.042 110.646 400.636 113.165 397.938 113.165ZM418.354 117.32C421.525 117.32 423.174 115.491 423.928 113.855H424.158V117H429.528V90.8182H424.094V100.662H423.928C423.2 99.0639 421.627 97.108 418.342 97.108C414.033 97.108 410.39 100.457 410.39 107.207C410.39 113.778 413.88 117.32 418.354 117.32ZM420.08 112.986C417.408 112.986 415.951 110.608 415.951 107.182C415.951 103.781 417.383 101.442 420.08 101.442C422.727 101.442 424.21 103.679 424.21 107.182C424.21 110.685 422.701 112.986 420.08 112.986ZM439.605 117.371C442.507 117.371 444.386 116.105 445.345 114.277H445.498V117H450.663V103.756C450.663 99.0767 446.7 97.108 442.328 97.108C437.623 97.108 434.529 99.358 433.775 102.938L438.812 103.347C439.183 102.043 440.346 101.084 442.302 101.084C444.156 101.084 445.217 102.017 445.217 103.628V103.705C445.217 104.97 443.875 105.136 440.461 105.469C436.575 105.827 433.085 107.131 433.085 111.516C433.085 115.402 435.859 117.371 439.605 117.371ZM441.164 113.612C439.49 113.612 438.288 112.832 438.288 111.337C438.288 109.803 439.554 109.048 441.471 108.78C442.66 108.614 444.603 108.332 445.255 107.898V109.982C445.255 112.04 443.555 113.612 441.164 113.612ZM457.547 124.364C461.6 124.364 463.748 122.293 464.86 119.122L472.492 97.3892L466.726 97.3636L462.623 111.784H462.418L458.353 97.3636H452.625L459.669 117.562L459.35 118.393C458.634 120.234 457.266 120.324 455.348 119.736L454.121 123.801C454.901 124.134 456.167 124.364 457.547 124.364ZM477.232 117.332C478.868 117.332 480.287 115.964 480.3 114.264C480.287 112.589 478.868 111.222 477.232 111.222C475.544 111.222 474.151 112.589 474.163 114.264C474.151 115.964 475.544 117.332 477.232 117.332Z" fill="#4F46E5"/>
<rect x="1086" y="54" width="136" height="51" rx="8" fill="#4F46E5"/>
<path d="M1119.15 77.0398H1120.95C1120.56 74.7727 1118.62 73.2045 1116.11 73.2045C1113.1 73.2045 1110.9 75.4716 1110.9 79.1875C1110.9 82.8693 1113.04 85.1591 1116.19 85.1591C1119.02 85.1591 1121.03 83.3068 1121.03 80.3693V79.0455H1116.46V80.4943H1119.34C1119.3 82.3693 1118.06 83.5568 1116.19 83.5568C1114.14 83.5568 1112.65 82.0057 1112.65 79.1761C1112.65 76.358 1114.15 74.8068 1116.12 74.8068C1117.67 74.8068 1118.72 75.6591 1119.15 77.0398ZM1126.89 85.1761C1128.79 85.1761 1130.14 84.2386 1130.52 82.8182L1128.92 82.5284C1128.61 83.3523 1127.87 83.7727 1126.9 83.7727C1125.45 83.7727 1124.47 82.8295 1124.43 81.1477H1130.63V80.5455C1130.63 77.392 1128.75 76.1591 1126.77 76.1591C1124.34 76.1591 1122.73 78.0114 1122.73 80.6932C1122.73 83.4034 1124.31 85.1761 1126.89 85.1761ZM1124.43 79.875C1124.5 78.6364 1125.4 77.5625 1126.78 77.5625C1128.1 77.5625 1128.96 78.5398 1128.97 79.875H1124.43ZM1136.59 76.2727H1134.8V74.1818H1133.1V76.2727H1131.82V77.6364H1133.1V82.7898C1133.1 84.375 1134.31 85.142 1135.65 85.1136C1136.19 85.108 1136.55 85.0057 1136.75 84.9318L1136.44 83.5284C1136.33 83.5511 1136.12 83.6023 1135.85 83.6023C1135.3 83.6023 1134.8 83.4205 1134.8 82.4375V77.6364H1136.59V76.2727ZM1149.24 78.4034C1148.89 77.0455 1147.83 76.1591 1145.94 76.1591C1143.97 76.1591 1142.57 77.1989 1142.57 78.7443C1142.57 79.983 1143.32 80.8068 1144.96 81.1705L1146.44 81.4943C1147.28 81.6818 1147.67 82.0568 1147.67 82.6023C1147.67 83.2784 1146.95 83.8068 1145.84 83.8068C1144.82 83.8068 1144.16 83.3693 1143.96 82.5114L1142.32 82.7614C1142.6 84.3068 1143.89 85.1761 1145.85 85.1761C1147.95 85.1761 1149.41 84.0568 1149.41 82.4773C1149.41 81.2443 1148.63 80.483 1147.03 80.1136L1145.64 79.7955C1144.68 79.5682 1144.27 79.2443 1144.27 78.6534C1144.27 77.983 1144.99 77.5057 1145.96 77.5057C1147.02 77.5057 1147.51 78.0909 1147.7 78.6761L1149.24 78.4034ZM1155.36 76.2727H1153.57V74.1818H1151.87V76.2727H1150.59V77.6364H1151.87V82.7898C1151.86 84.375 1153.07 85.142 1154.41 85.1136C1154.95 85.108 1155.32 85.0057 1155.52 84.9318L1155.21 83.5284C1155.1 83.5511 1154.88 83.6023 1154.61 83.6023C1154.06 83.6023 1153.57 83.4205 1153.57 82.4375V77.6364H1155.36V76.2727ZM1159.78 85.1932C1161.22 85.1932 1162.03 84.4602 1162.36 83.8068H1162.42V85H1164.08V79.2045C1164.08 76.6648 1162.08 76.1591 1160.7 76.1591C1159.12 76.1591 1157.66 76.7955 1157.09 78.3864L1158.69 78.75C1158.94 78.1307 1159.58 77.5341 1160.72 77.5341C1161.82 77.5341 1162.38 78.108 1162.38 79.0966V79.1364C1162.38 79.7557 1161.74 79.7443 1160.17 79.9261C1158.52 80.1193 1156.83 80.5511 1156.83 82.5341C1156.83 84.25 1158.12 85.1932 1159.78 85.1932ZM1160.14 83.8295C1159.18 83.8295 1158.49 83.3977 1158.49 82.5568C1158.49 81.6477 1159.3 81.3239 1160.28 81.1932C1160.83 81.1193 1162.14 80.9716 1162.38 80.7273V81.8523C1162.38 82.8864 1161.56 83.8295 1160.14 83.8295ZM1166.35 85H1168.04V79.6705C1168.04 78.5284 1168.92 77.7045 1170.13 77.7045C1170.48 77.7045 1170.88 77.767 1171.02 77.8068V76.1818C1170.85 76.1591 1170.51 76.142 1170.29 76.142C1169.27 76.142 1168.4 76.7216 1168.08 77.6591H1167.99V76.2727H1166.35V85ZM1177.08 76.2727H1175.29V74.1818H1173.59V76.2727H1172.31V77.6364H1173.59V82.7898C1173.58 84.375 1174.79 85.142 1176.13 85.1136C1176.67 85.108 1177.04 85.0057 1177.23 84.9318L1176.93 83.5284C1176.81 83.5511 1176.6 83.6023 1176.33 83.6023C1175.78 83.6023 1175.29 83.4205 1175.29 82.4375V77.6364H1177.08V76.2727ZM1182.62 85.1761C1184.53 85.1761 1185.87 84.2386 1186.26 82.8182L1184.65 82.5284C1184.34 83.3523 1183.61 83.7727 1182.64 83.7727C1181.18 83.7727 1180.21 82.8295 1180.16 81.1477H1186.37V80.5455C1186.37 77.392 1184.48 76.1591 1182.5 76.1591C1180.07 76.1591 1178.47 78.0114 1178.47 80.6932C1178.47 83.4034 1180.05 85.1761 1182.62 85.1761ZM1180.17 79.875C1180.24 78.6364 1181.13 77.5625 1182.51 77.5625C1183.83 77.5625 1184.7 78.5398 1184.7 79.875H1180.17ZM1191.52 85.1705C1193.11 85.1705 1193.73 84.1989 1194.04 83.642H1194.18V85H1195.84V73.3636H1194.14V77.6875H1194.04C1193.73 77.1477 1193.15 76.1591 1191.53 76.1591C1189.42 76.1591 1187.87 77.8239 1187.87 80.6534C1187.87 83.4773 1189.4 85.1705 1191.52 85.1705ZM1191.89 83.7216C1190.38 83.7216 1189.59 82.3864 1189.59 80.6364C1189.59 78.9034 1190.36 77.6023 1191.89 77.6023C1193.38 77.6023 1194.17 78.8125 1194.17 80.6364C1194.17 82.4716 1193.36 83.7216 1191.89 83.7216Z" fill="white"/>
</svg>
