<svg width="296" height="64" viewBox="0 0 296 64" fill="none" xmlns="http://www.w3.org/2000/svg">
<rect width="296" height="64" rx="8" fill="white"/>
<path d="M0 8C0 3.58172 3.58172 0 8 0L58.3363 0V64H8C3.58172 64 0 60.4183 0 56L0 8Z" fill="#FBBF24"/>
<path d="M276 28C275.47 28 274.961 27.7893 274.586 27.4142C274.211 27.0391 274 26.5304 274 26C274 25.4696 274.211 24.9609 274.586 24.5858C274.961 24.2107 275.47 24 276 24C276.53 24 277.039 24.2107 277.414 24.5858C277.789 24.9609 278 25.4696 278 26C278 26.5304 277.789 27.0391 277.414 27.4142C277.039 27.7893 276.53 28 276 28ZM276 34C275.47 34 274.961 33.7893 274.586 33.4142C274.211 33.0391 274 32.5304 274 32C274 31.4696 274.211 30.9609 274.586 30.5858C274.961 30.2107 275.47 30 276 30C276.53 30 277.039 30.2107 277.414 30.5858C277.789 30.9609 278 31.4696 278 32C278 32.5304 277.789 33.0391 277.414 33.4142C277.039 33.7893 276.53 34 276 34ZM276 40C275.47 40 274.961 39.7893 274.586 39.4142C274.211 39.0391 274 38.5304 274 38C274 37.4696 274.211 36.9609 274.586 36.5858C274.961 36.2107 275.47 36 276 36C276.53 36 277.039 36.2107 277.414 36.5858C277.789 36.9609 278 37.4696 278 38C278 38.5304 277.789 39.0391 277.414 39.4142C277.039 39.7893 276.53 40 276 40Z" fill="#9CA3AF"/>
<path d="M77.4634 26H78.6964V22.0227H80.9237C81.0131 22.0227 81.0977 22.0227 81.1822 22.0178L83.3299 26H84.7617L82.4599 21.794C83.7575 21.3516 84.364 20.2926 84.364 18.9403C84.364 17.1406 83.2901 15.8182 80.9038 15.8182H77.4634V26ZM78.6964 20.9091V16.9119H80.864C82.5146 16.9119 83.1509 17.7173 83.1509 18.9403C83.1509 20.1634 82.5146 20.9091 80.8839 20.9091H78.6964ZM91.0719 22.8778C91.0719 24.3097 89.9782 24.9659 89.1032 24.9659C88.1287 24.9659 87.4327 24.25 87.4327 23.1364V18.3636H86.2594V23.2159C86.2594 25.1648 87.2935 26.0994 88.7253 26.0994C89.8787 26.0994 90.6344 25.483 90.9924 24.7074H91.0719V26H92.2452V18.3636H91.0719V22.8778ZM94.5533 26H95.6868V24.8267H95.826C96.0845 25.2443 96.5817 26.1591 98.0533 26.1591C99.9624 26.1591 101.295 24.6278 101.295 22.2017C101.295 19.7955 99.9624 18.2642 98.0334 18.2642C96.5419 18.2642 96.0845 19.179 95.826 19.5767H95.7266V15.8182H94.5533V26ZM95.7067 22.1818C95.7067 20.4716 96.4624 19.3182 97.8942 19.3182C99.3857 19.3182 100.121 20.571 100.121 22.1818C100.121 23.8125 99.3658 25.1051 97.8942 25.1051C96.4822 25.1051 95.7067 23.9119 95.7067 22.1818ZM103.572 28.8636C104.631 28.8636 105.376 28.3018 105.819 27.1136L109.07 18.3835L107.788 18.3636L105.68 24.4489H105.6L103.492 18.3636H102.219L105.043 26.0398L104.825 26.6364C104.397 27.7997 103.87 27.9091 103.015 27.6903L102.717 28.7244C102.836 28.7841 103.174 28.8636 103.572 28.8636ZM117.662 26.1591C119.731 26.1591 121.123 24.5881 121.123 22.2216C121.123 19.8352 119.731 18.2642 117.662 18.2642C115.594 18.2642 114.202 19.8352 114.202 22.2216C114.202 24.5881 115.594 26.1591 117.662 26.1591ZM117.662 25.1051C116.091 25.1051 115.376 23.7528 115.376 22.2216C115.376 20.6903 116.091 19.3182 117.662 19.3182C119.233 19.3182 119.949 20.6903 119.949 22.2216C119.949 23.7528 119.233 25.1051 117.662 25.1051ZM124.087 21.4062C124.087 20.0739 124.912 19.3182 126.036 19.3182C127.125 19.3182 127.786 20.0291 127.786 21.2273V26H128.959V21.1477C128.959 19.1989 127.92 18.2642 126.374 18.2642C125.221 18.2642 124.505 18.7812 124.147 19.5568H124.047V18.3636H122.914V26H124.087V21.4062ZM135.2 26H136.433V22.0227H138.66C138.749 22.0227 138.834 22.0227 138.919 22.0178L141.066 26H142.498L140.196 21.794C141.494 21.3516 142.1 20.2926 142.1 18.9403C142.1 17.1406 141.026 15.8182 138.64 15.8182H135.2V26ZM136.433 20.9091V16.9119H138.6C140.251 16.9119 140.887 17.7173 140.887 18.9403C140.887 20.1634 140.251 20.9091 138.62 20.9091H136.433ZM146.243 26.179C147.575 26.179 148.271 25.4631 148.51 24.9659H148.57V26H149.743V20.9688C149.743 18.5426 147.893 18.2642 146.919 18.2642C145.766 18.2642 144.453 18.6619 143.857 20.054L144.97 20.4517C145.229 19.8949 145.84 19.2983 146.959 19.2983C148.038 19.2983 148.57 19.87 148.57 20.8494V20.8892C148.57 21.456 147.993 21.4062 146.601 21.5852C145.184 21.7692 143.638 22.0824 143.638 23.8324C143.638 25.3239 144.791 26.179 146.243 26.179ZM146.422 25.125C145.487 25.125 144.811 24.7074 144.811 23.892C144.811 22.9972 145.626 22.7188 146.541 22.5994C147.038 22.5398 148.371 22.4006 148.57 22.1619V23.2358C148.57 24.1903 147.814 25.125 146.422 25.125ZM151.884 26H153.058V18.3636H151.884V26ZM152.481 17.0909C152.938 17.0909 153.316 16.733 153.316 16.2955C153.316 15.858 152.938 15.5 152.481 15.5C152.024 15.5 151.646 15.858 151.646 16.2955C151.646 16.733 152.024 17.0909 152.481 17.0909ZM156.38 15.8182H155.207V26H156.38V15.8182ZM163.938 20.0739C163.57 18.9901 162.745 18.2642 161.233 18.2642C159.623 18.2642 158.43 19.179 158.43 20.4716C158.43 21.5256 159.056 22.2315 160.458 22.5597L161.731 22.858C162.501 23.0369 162.864 23.4048 162.864 23.9318C162.864 24.5881 162.168 25.125 161.074 25.125C160.115 25.125 159.513 24.7124 159.305 23.892L158.191 24.1705C158.464 25.468 159.533 26.1591 161.094 26.1591C162.869 26.1591 164.077 25.1896 164.077 23.8722C164.077 22.8082 163.411 22.1371 162.049 21.804L160.915 21.5256C160.01 21.3018 159.603 20.9986 159.603 20.4119C159.603 19.7557 160.299 19.2784 161.233 19.2784C162.258 19.2784 162.68 19.8452 162.884 20.3722L163.938 20.0739Z" fill="#1F2937"/>
<path d="M80.4347 49.1392C82.4929 49.1641 83.8352 47.6129 83.8352 45.7188C83.8352 43.75 82.3786 42.3381 80.6335 42.3381C79.5845 42.3381 78.6847 42.8501 78.1278 43.6903H78.0483C78.0533 41.2095 79.0178 39.7727 80.5938 39.7727C81.6676 39.7727 82.3139 40.4489 82.5426 41.3636H83.7557C83.5071 39.7827 82.304 38.679 80.5938 38.679C78.3018 38.679 76.8949 40.7074 76.8949 44.3068C76.8949 48.0703 78.7642 49.1193 80.4347 49.1392ZM80.4347 48.0455C79.157 48.0455 78.2223 46.9567 78.2273 45.7386C78.2322 44.5206 79.2116 43.4318 80.4744 43.4318C81.7223 43.4318 82.642 44.456 82.642 45.7188C82.642 47.0114 81.6825 48.0455 80.4347 48.0455ZM89.7477 49H90.921V44.2273C90.921 43.1087 91.7363 42.3182 92.6511 42.3182C93.541 42.3182 94.1625 42.8999 94.1625 43.7699V49H95.3556V44.0284C95.3556 43.044 95.9721 42.3182 97.046 42.3182C97.8812 42.3182 98.5971 42.7607 98.5971 43.8892V49H99.7704V43.8892C99.7704 42.0945 98.8059 41.2642 97.4437 41.2642C96.35 41.2642 95.5495 41.7663 95.1568 42.5568H95.0772C94.6994 41.7415 94.0332 41.2642 93.0289 41.2642C92.0346 41.2642 91.2988 41.7415 90.9806 42.5568H90.8812V41.3636H89.7477V49ZM105.117 49.1591C106.669 49.1591 107.802 48.3835 108.16 47.2301L107.026 46.9119C106.728 47.7074 106.037 48.1051 105.117 48.1051C103.74 48.1051 102.791 47.2152 102.736 45.5795H108.279V45.0824C108.279 42.2386 106.589 41.2642 104.998 41.2642C102.93 41.2642 101.558 42.8949 101.558 45.2415C101.558 47.5881 102.91 49.1591 105.117 49.1591ZM102.736 44.5653C102.816 43.3771 103.656 42.3182 104.998 42.3182C106.271 42.3182 107.086 43.2727 107.086 44.5653H102.736ZM110.064 49H111.237V44.2273C111.237 43.1087 112.053 42.3182 112.968 42.3182C113.857 42.3182 114.479 42.8999 114.479 43.7699V49H115.672V44.0284C115.672 43.044 116.289 42.3182 117.362 42.3182C118.198 42.3182 118.914 42.7607 118.914 43.8892V49H120.087V43.8892C120.087 42.0945 119.122 41.2642 117.76 41.2642C116.666 41.2642 115.866 41.7663 115.473 42.5568H115.394C115.016 41.7415 114.35 41.2642 113.345 41.2642C112.351 41.2642 111.615 41.7415 111.297 42.5568H111.198V41.3636H110.064V49ZM122.391 49H123.525V47.8267H123.664C123.922 48.2443 124.42 49.1591 125.891 49.1591C127.8 49.1591 129.133 47.6278 129.133 45.2017C129.133 42.7955 127.8 41.2642 125.871 41.2642C124.38 41.2642 123.922 42.179 123.664 42.5767H123.564V38.8182H122.391V49ZM123.545 45.1818C123.545 43.4716 124.3 42.3182 125.732 42.3182C127.224 42.3182 127.959 43.571 127.959 45.1818C127.959 46.8125 127.204 48.1051 125.732 48.1051C124.32 48.1051 123.545 46.9119 123.545 45.1818ZM134.129 49.1591C135.68 49.1591 136.814 48.3835 137.172 47.2301L136.038 46.9119C135.74 47.7074 135.049 48.1051 134.129 48.1051C132.752 48.1051 131.802 47.2152 131.748 45.5795H137.291V45.0824C137.291 42.2386 135.601 41.2642 134.01 41.2642C131.942 41.2642 130.569 42.8949 130.569 45.2415C130.569 47.5881 131.922 49.1591 134.129 49.1591ZM131.748 44.5653C131.827 43.3771 132.667 42.3182 134.01 42.3182C135.282 42.3182 136.098 43.2727 136.098 44.5653H131.748ZM139.076 49H140.249V44.1676C140.249 43.1335 141.064 42.3778 142.178 42.3778C142.491 42.3778 142.814 42.4375 142.894 42.4574V41.2642C142.76 41.2543 142.452 41.2443 142.278 41.2443C141.363 41.2443 140.567 41.7614 140.289 42.517H140.209V41.3636H139.076V49ZM149.694 43.0739C149.326 41.9901 148.501 41.2642 146.989 41.2642C145.379 41.2642 144.185 42.179 144.185 43.4716C144.185 44.5256 144.812 45.2315 146.214 45.5597L147.487 45.858C148.257 46.0369 148.62 46.4048 148.62 46.9318C148.62 47.5881 147.924 48.125 146.83 48.125C145.871 48.125 145.269 47.7124 145.06 46.892L143.947 47.1705C144.22 48.468 145.289 49.1591 146.85 49.1591C148.625 49.1591 149.833 48.1896 149.833 46.8722C149.833 45.8082 149.167 45.1371 147.805 44.804L146.671 44.5256C145.766 44.3018 145.359 43.9986 145.359 43.4119C145.359 42.7557 146.055 42.2784 146.989 42.2784C148.013 42.2784 148.436 42.8452 148.64 43.3722L149.694 43.0739Z" fill="#9CA3AF"/>
<path d="M24.4382 39H26.4134V34.0462H29.098C29.1428 34.0462 29.1811 34.0462 29.2259 34.0462L31.8849 39H34.1349L31.233 33.701C32.8374 33.1065 33.6364 31.7706 33.6364 30.0128C33.6364 27.603 32.1406 25.9091 29.1044 25.9091H24.4382V39ZM26.4134 32.3459V27.603H28.8935C30.843 27.603 31.6484 28.5298 31.6484 30.0128C31.6484 31.4893 30.843 32.3459 28.919 32.3459H26.4134Z" fill="#1F2937"/>
</svg>
