<svg width="296" height="64" viewBox="0 0 296 64" fill="none" xmlns="http://www.w3.org/2000/svg">
<rect width="296" height="64" rx="8" fill="white"/>
<path d="M0 8C0 3.58172 3.58172 0 8 0H58.3363V64H8C3.58172 64 0 60.4183 0 56V8Z" fill="#C084FC"/>
<path d="M276 28C275.47 28 274.961 27.7893 274.586 27.4142C274.211 27.0391 274 26.5304 274 26C274 25.4696 274.211 24.9609 274.586 24.5858C274.961 24.2107 275.47 24 276 24C276.53 24 277.039 24.2107 277.414 24.5858C277.789 24.9609 278 25.4696 278 26C278 26.5304 277.789 27.0391 277.414 27.4142C277.039 27.7893 276.53 28 276 28ZM276 34C275.47 34 274.961 33.7893 274.586 33.4142C274.211 33.0391 274 32.5304 274 32C274 31.4696 274.211 30.9609 274.586 30.5858C274.961 30.2107 275.47 30 276 30C276.53 30 277.039 30.2107 277.414 30.5858C277.789 30.9609 278 31.4696 278 32C278 32.5304 277.789 33.0391 277.414 33.4142C277.039 33.7893 276.53 34 276 34ZM276 40C275.47 40 274.961 39.7893 274.586 39.4142C274.211 39.0391 274 38.5304 274 38C274 37.4696 274.211 36.9609 274.586 36.5858C274.961 36.2107 275.47 36 276 36C276.53 36 277.039 36.2107 277.414 36.5858C277.789 36.9609 278 37.4696 278 38C278 38.5304 277.789 39.0391 277.414 39.4142C277.039 39.7893 276.53 40 276 40Z" fill="#9CA3AF"/>
<path d="M77.3472 26H78.5802V22.0227H80.8074C80.8969 22.0227 80.9814 22.0227 81.066 22.0178L83.2137 26H84.6455L82.3437 21.794C83.6412 21.3516 84.2478 20.2926 84.2478 18.9403C84.2478 17.1406 83.1739 15.8182 80.7876 15.8182H77.3472V26ZM78.5802 20.9091V16.9119H80.7478C82.3983 16.9119 83.0347 17.7173 83.0347 18.9403C83.0347 20.1634 82.3983 20.9091 80.7677 20.9091H78.5802ZM89.2629 26.1591C90.814 26.1591 91.9475 25.3835 92.3055 24.2301L91.172 23.9119C90.8737 24.7074 90.1826 25.1051 89.2629 25.1051C87.8857 25.1051 86.9362 24.2152 86.8815 22.5795H92.4248V22.0824C92.4248 19.2386 90.7345 18.2642 89.1436 18.2642C87.0754 18.2642 85.7032 19.8949 85.7032 22.2415C85.7032 24.5881 87.0555 26.1591 89.2629 26.1591ZM86.8815 21.5653C86.961 20.3771 87.8012 19.3182 89.1436 19.3182C90.4163 19.3182 91.2316 20.2727 91.2316 21.5653H86.8815ZM96.4568 26.179C97.7892 26.179 98.4852 25.4631 98.7238 24.9659H98.7835V26H99.9568V20.9688C99.9568 18.5426 98.1073 18.2642 97.1329 18.2642C95.9795 18.2642 94.667 18.6619 94.0704 20.054L95.184 20.4517C95.4426 19.8949 96.0541 19.2983 97.1727 19.2983C98.2515 19.2983 98.7835 19.87 98.7835 20.8494V20.8892C98.7835 21.456 98.2068 21.4062 96.8147 21.5852C95.3978 21.7692 93.8517 22.0824 93.8517 23.8324C93.8517 25.3239 95.0051 26.179 96.4568 26.179ZM96.6357 25.125C95.7011 25.125 95.0249 24.7074 95.0249 23.892C95.0249 22.9972 95.8403 22.7188 96.7551 22.5994C97.2522 22.5398 98.5846 22.4006 98.7835 22.1619V23.2358C98.7835 24.1903 98.0278 25.125 96.6357 25.125ZM105.201 26.1591C106.891 26.1591 108.005 25.125 108.203 23.7727H107.03C106.811 24.608 106.115 25.1051 105.201 25.1051C103.809 25.1051 102.914 23.9517 102.914 22.1818C102.914 20.4517 103.828 19.3182 105.201 19.3182C106.235 19.3182 106.851 19.9545 107.03 20.6506H108.203C108.005 19.2188 106.791 18.2642 105.181 18.2642C103.112 18.2642 101.74 19.8949 101.74 22.2216C101.74 24.5085 103.053 26.1591 105.201 26.1591ZM113.24 18.3636H111.609V16.5341H110.436V18.3636H109.282V19.358H110.436V24.1307C110.436 25.4631 111.509 26.0994 112.504 26.0994C112.941 26.0994 113.22 26.0199 113.379 25.9602L113.14 24.9062C113.041 24.9261 112.882 24.9659 112.623 24.9659C112.106 24.9659 111.609 24.8068 111.609 23.8125V19.358H113.24V18.3636ZM122.044 26.1591C123.735 26.1591 124.848 25.125 125.047 23.7727H123.874C123.655 24.608 122.959 25.1051 122.044 25.1051C120.652 25.1051 119.757 23.9517 119.757 22.1818C119.757 20.4517 120.672 19.3182 122.044 19.3182C123.078 19.3182 123.695 19.9545 123.874 20.6506H125.047C124.848 19.2188 123.635 18.2642 122.024 18.2642C119.956 18.2642 118.584 19.8949 118.584 22.2216C118.584 24.5085 119.897 26.1591 122.044 26.1591ZM129.865 26.1591C131.933 26.1591 133.325 24.5881 133.325 22.2216C133.325 19.8352 131.933 18.2642 129.865 18.2642C127.796 18.2642 126.404 19.8352 126.404 22.2216C126.404 24.5881 127.796 26.1591 129.865 26.1591ZM129.865 25.1051C128.294 25.1051 127.578 23.7528 127.578 22.2216C127.578 20.6903 128.294 19.3182 129.865 19.3182C131.436 19.3182 132.152 20.6903 132.152 22.2216C132.152 23.7528 131.436 25.1051 129.865 25.1051ZM135.116 26H136.289V21.2273C136.289 20.1087 137.104 19.3182 138.019 19.3182C138.909 19.3182 139.531 19.8999 139.531 20.7699V26H140.724V21.0284C140.724 20.044 141.34 19.3182 142.414 19.3182C143.249 19.3182 143.965 19.7607 143.965 20.8892V26H145.139V20.8892C145.139 19.0945 144.174 18.2642 142.812 18.2642C141.718 18.2642 140.918 18.7663 140.525 19.5568H140.445C140.068 18.7415 139.401 18.2642 138.397 18.2642C137.403 18.2642 136.667 18.7415 136.349 19.5568H136.249V18.3636H135.116V26ZM147.284 28.8636H148.457V24.8267H148.557C148.815 25.2443 149.312 26.1591 150.784 26.1591C152.693 26.1591 154.025 24.6278 154.025 22.2017C154.025 19.7955 152.693 18.2642 150.764 18.2642C149.272 18.2642 148.815 19.179 148.557 19.5767H148.417V18.3636H147.284V28.8636ZM148.437 22.1818C148.437 20.4716 149.193 19.3182 150.625 19.3182C152.116 19.3182 152.852 20.571 152.852 22.1818C152.852 23.8125 152.096 25.1051 150.625 25.1051C149.213 25.1051 148.437 23.9119 148.437 22.1818ZM158.917 26.1591C160.986 26.1591 162.378 24.5881 162.378 22.2216C162.378 19.8352 160.986 18.2642 158.917 18.2642C156.849 18.2642 155.457 19.8352 155.457 22.2216C155.457 24.5881 156.849 26.1591 158.917 26.1591ZM158.917 25.1051C157.346 25.1051 156.63 23.7528 156.63 22.2216C156.63 20.6903 157.346 19.3182 158.917 19.3182C160.488 19.3182 161.204 20.6903 161.204 22.2216C161.204 23.7528 160.488 25.1051 158.917 25.1051ZM165.342 21.4062C165.342 20.0739 166.167 19.3182 167.291 19.3182C168.38 19.3182 169.041 20.0291 169.041 21.2273V26H170.214V21.1477C170.214 19.1989 169.175 18.2642 167.629 18.2642C166.475 18.2642 165.759 18.7812 165.402 19.5568H165.302V18.3636H164.169V26H165.342V21.4062ZM175.56 26.1591C177.111 26.1591 178.244 25.3835 178.602 24.2301L177.469 23.9119C177.171 24.7074 176.479 25.1051 175.56 25.1051C174.183 25.1051 173.233 24.2152 173.178 22.5795H178.722V22.0824C178.722 19.2386 177.031 18.2642 175.44 18.2642C173.372 18.2642 172 19.8949 172 22.2415C172 24.5881 173.352 26.1591 175.56 26.1591ZM173.178 21.5653C173.258 20.3771 174.098 19.3182 175.44 19.3182C176.713 19.3182 177.528 20.2727 177.528 21.5653H173.178ZM181.68 21.4062C181.68 20.0739 182.505 19.3182 183.629 19.3182C184.717 19.3182 185.379 20.0291 185.379 21.2273V26H186.552V21.1477C186.552 19.1989 185.513 18.2642 183.967 18.2642C182.813 18.2642 182.097 18.7812 181.739 19.5568H181.64V18.3636H180.506V26H181.68V21.4062ZM192.017 18.3636H190.386V16.5341H189.213V18.3636H188.06V19.358H189.213V24.1307C189.213 25.4631 190.287 26.0994 191.281 26.0994C191.719 26.0994 191.997 26.0199 192.156 25.9602L191.918 24.9062C191.818 24.9261 191.659 24.9659 191.4 24.9659C190.883 24.9659 190.386 24.8068 190.386 23.8125V19.358H192.017V18.3636ZM199.054 20.0739C198.686 18.9901 197.861 18.2642 196.35 18.2642C194.739 18.2642 193.546 19.179 193.546 20.4716C193.546 21.5256 194.172 22.2315 195.574 22.5597L196.847 22.858C197.617 23.0369 197.98 23.4048 197.98 23.9318C197.98 24.5881 197.284 25.125 196.191 25.125C195.231 25.125 194.63 24.7124 194.421 23.892L193.307 24.1705C193.581 25.468 194.649 26.1591 196.21 26.1591C197.985 26.1591 199.193 25.1896 199.193 23.8722C199.193 22.8082 198.527 22.1371 197.165 21.804L196.032 21.5256C195.127 21.3018 194.719 20.9986 194.719 20.4119C194.719 19.7557 195.415 19.2784 196.35 19.2784C197.374 19.2784 197.796 19.8452 198 20.3722L199.054 20.0739Z" fill="#1F2937"/>
<path d="M80.3153 49.1392C82.3487 49.1392 83.7656 47.951 83.7756 46.2955C83.7656 45.0078 82.9055 43.9141 81.8068 43.7102V43.6506C82.7614 43.402 83.3878 42.4673 83.3977 41.3835C83.3878 39.8324 82.0852 38.679 80.3153 38.679C78.5256 38.679 77.223 39.8324 77.233 41.3835C77.223 42.4673 77.8494 43.402 78.8239 43.6506V43.7102C77.7053 43.9141 76.8452 45.0078 76.8551 46.2955C76.8452 47.951 78.2621 49.1392 80.3153 49.1392ZM80.3153 48.0455C78.9183 48.0455 78.0582 47.3295 78.0682 46.2358C78.0582 45.0874 79.0078 44.267 80.3153 44.267C81.603 44.267 82.5526 45.0874 82.5625 46.2358C82.5526 47.3295 81.6925 48.0455 80.3153 48.0455ZM80.3153 43.2131C79.2017 43.2131 78.4162 42.517 78.4261 41.4631C78.4162 40.429 79.1719 39.7528 80.3153 39.7528C81.4389 39.7528 82.1946 40.429 82.2045 41.4631C82.1946 42.517 81.4091 43.2131 80.3153 43.2131ZM89.6383 49H90.8116V44.2273C90.8116 43.1087 91.627 42.3182 92.5417 42.3182C93.4316 42.3182 94.0531 42.8999 94.0531 43.7699V49H95.2463V44.0284C95.2463 43.044 95.8627 42.3182 96.9366 42.3182C97.7718 42.3182 98.4877 42.7607 98.4877 43.8892V49H99.661V43.8892C99.661 42.0945 98.6966 41.2642 97.3343 41.2642C96.2406 41.2642 95.4402 41.7663 95.0474 42.5568H94.9679C94.59 41.7415 93.9238 41.2642 92.9196 41.2642C91.9252 41.2642 91.1895 41.7415 90.8713 42.5568H90.7718V41.3636H89.6383V49ZM105.008 49.1591C106.559 49.1591 107.693 48.3835 108.051 47.2301L106.917 46.9119C106.619 47.7074 105.928 48.1051 105.008 48.1051C103.631 48.1051 102.681 47.2152 102.627 45.5795H108.17V45.0824C108.17 42.2386 106.48 41.2642 104.889 41.2642C102.82 41.2642 101.448 42.8949 101.448 45.2415C101.448 47.5881 102.801 49.1591 105.008 49.1591ZM102.627 44.5653C102.706 43.3771 103.546 42.3182 104.889 42.3182C106.161 42.3182 106.977 43.2727 106.977 44.5653H102.627ZM109.955 49H111.128V44.2273C111.128 43.1087 111.943 42.3182 112.858 42.3182C113.748 42.3182 114.369 42.8999 114.369 43.7699V49H115.563V44.0284C115.563 43.044 116.179 42.3182 117.253 42.3182C118.088 42.3182 118.804 42.7607 118.804 43.8892V49H119.977V43.8892C119.977 42.0945 119.013 41.2642 117.651 41.2642C116.557 41.2642 115.757 41.7663 115.364 42.5568H115.284C114.906 41.7415 114.24 41.2642 113.236 41.2642C112.242 41.2642 111.506 41.7415 111.188 42.5568H111.088V41.3636H109.955V49ZM122.282 49H123.415V47.8267H123.555C123.813 48.2443 124.31 49.1591 125.782 49.1591C127.691 49.1591 129.023 47.6278 129.023 45.2017C129.023 42.7955 127.691 41.2642 125.762 41.2642C124.27 41.2642 123.813 42.179 123.555 42.5767H123.455V38.8182H122.282V49ZM123.435 45.1818C123.435 43.4716 124.191 42.3182 125.623 42.3182C127.114 42.3182 127.85 43.571 127.85 45.1818C127.85 46.8125 127.094 48.1051 125.623 48.1051C124.211 48.1051 123.435 46.9119 123.435 45.1818ZM134.02 49.1591C135.571 49.1591 136.704 48.3835 137.062 47.2301L135.929 46.9119C135.631 47.7074 134.939 48.1051 134.02 48.1051C132.643 48.1051 131.693 47.2152 131.638 45.5795H137.182V45.0824C137.182 42.2386 135.491 41.2642 133.9 41.2642C131.832 41.2642 130.46 42.8949 130.46 45.2415C130.46 47.5881 131.812 49.1591 134.02 49.1591ZM131.638 44.5653C131.718 43.3771 132.558 42.3182 133.9 42.3182C135.173 42.3182 135.988 43.2727 135.988 44.5653H131.638ZM138.966 49H140.14V44.1676C140.14 43.1335 140.955 42.3778 142.069 42.3778C142.382 42.3778 142.705 42.4375 142.785 42.4574V41.2642C142.65 41.2543 142.342 41.2443 142.168 41.2443C141.253 41.2443 140.458 41.7614 140.18 42.517H140.1V41.3636H138.966V49ZM149.585 43.0739C149.217 41.9901 148.391 41.2642 146.88 41.2642C145.269 41.2642 144.076 42.179 144.076 43.4716C144.076 44.5256 144.702 45.2315 146.104 45.5597L147.377 45.858C148.148 46.0369 148.511 46.4048 148.511 46.9318C148.511 47.5881 147.815 48.125 146.721 48.125C145.761 48.125 145.16 47.7124 144.951 46.892L143.837 47.1705C144.111 48.468 145.18 49.1591 146.741 49.1591C148.516 49.1591 149.724 48.1896 149.724 46.8722C149.724 45.8082 149.058 45.1371 147.695 44.804L146.562 44.5256C145.657 44.3018 145.249 43.9986 145.249 43.4119C145.249 42.7557 145.945 42.2784 146.88 42.2784C147.904 42.2784 148.327 42.8452 148.531 43.3722L149.585 43.0739Z" fill="#9CA3AF"/>
<path d="M21.4382 39H23.4134V34.0462H26.098C26.1428 34.0462 26.1811 34.0462 26.2259 34.0462L28.8849 39H31.1349L28.233 33.701C29.8374 33.1065 30.6364 31.7706 30.6364 30.0128C30.6364 27.603 29.1406 25.9091 26.1044 25.9091H21.4382V39ZM23.4134 32.3459V27.603H25.8935C27.843 27.603 28.6484 28.5298 28.6484 30.0128C28.6484 31.4893 27.843 32.3459 25.919 32.3459H23.4134ZM43.9126 30.1662C43.4652 27.3665 41.2727 25.7301 38.505 25.7301C35.1172 25.7301 32.6179 28.2678 32.6179 32.4545C32.6179 36.6413 35.1044 39.179 38.505 39.179C41.3814 39.179 43.4844 37.3764 43.9126 34.7876L41.9183 34.7812C41.5795 36.456 40.1733 37.3764 38.5178 37.3764C36.2741 37.3764 34.5803 35.657 34.5803 32.4545C34.5803 29.2777 36.2678 27.5327 38.5241 27.5327C40.1925 27.5327 41.5923 28.4723 41.9183 30.1662H43.9126Z" fill="#1F2937"/>
</svg>
