<svg width="700" height="305" viewBox="0 0 700 305" fill="none" xmlns="http://www.w3.org/2000/svg">
<g filter="url(#filter0_dd)">
<rect x="20" width="660" height="265" rx="8" fill="#6B21A8"/>
</g>
<path d="M42.5 23C42.5 21.3431 43.8431 20 45.5 20C47.1569 20 48.5 21.3431 48.5 23V24.5C48.5 25.3284 49.1716 26 50 26H54.5C55.3284 26 56 26.6716 56 27.5V32C56 32.8284 55.3284 33.5 54.5 33.5H53C51.3431 33.5 50 34.8431 50 36.5C50 38.1569 51.3431 39.5 53 39.5H54.5C55.3284 39.5 56 40.1716 56 41V45.5C56 46.3284 55.3284 47 54.5 47H50C49.1716 47 48.5 46.3284 48.5 45.5V44C48.5 42.3431 47.1569 41 45.5 41C43.8431 41 42.5 42.3431 42.5 44V45.5C42.5 46.3284 41.8284 47 41 47H36.5C35.6716 47 35 46.3284 35 45.5V41C35 40.1716 34.3284 39.5 33.5 39.5H32C30.3431 39.5 29 38.1569 29 36.5C29 34.8431 30.3431 33.5 32 33.5H33.5C34.3284 33.5 35 32.8284 35 32V27.5C35 26.6716 35.6716 26 36.5 26H41C41.8284 26 42.5 25.3284 42.5 24.5V23Z" stroke="#7E22CE" stroke-width="2" stroke-linecap="round" stroke-linejoin="round"/>
<path d="M112 23V24.5V23ZM121 41H124H121ZM115 41H112V47L115 41ZM112 30.5V35V30.5ZM112 35H112.015H112ZM112 35H118.015H112ZM118 47H124H118ZM100 35H106H100ZM124 35H124.015H124ZM101.5 29H104.5C105.328 29 106 28.3284 106 27.5V24.5C106 23.6716 105.328 23 104.5 23H101.5C100.672 23 100 23.6716 100 24.5V27.5C100 28.3284 100.672 29 101.5 29ZM119.5 29H122.5C123.328 29 124 28.3284 124 27.5V24.5C124 23.6716 123.328 23 122.5 23H119.5C118.672 23 118 23.6716 118 24.5V27.5C118 28.3284 118.672 29 119.5 29ZM101.5 47H104.5C105.328 47 106 46.3284 106 45.5V42.5C106 41.6716 105.328 41 104.5 41H101.5C100.672 41 100 41.6716 100 42.5V45.5C100 46.3284 100.672 47 101.5 47Z" stroke="#7E22CE" stroke-width="2" stroke-linecap="round" stroke-linejoin="round"/>
<path d="M174.341 30.5C175.165 28.7522 177.388 27.5 180 27.5C183.314 27.5 186 29.5147 186 32C186 34.0991 184.084 35.8627 181.491 36.3599C180.678 36.5159 180 37.1716 180 38L174.341 30.5ZM180 42.5H180.015H180ZM193.5 35C193.5 42.4559 187.456 48.5 180 48.5C172.544 48.5 166.5 42.4559 166.5 35C166.5 27.5442 172.544 21.5 180 21.5C187.456 21.5 193.5 27.5442 193.5 35Z" stroke="#7E22CE" stroke-width="2" stroke-linecap="round" stroke-linejoin="round"/>
<path d="M254 39.5V38C254 34.6863 251.314 32 248 32H242L254 39.5ZM242 32L246.5 36.5L242 32ZM242 32L246.5 27.5L242 32ZM260 48.5V24.5C260 22.8431 258.657 21.5 257 21.5H239C237.343 21.5 236 22.8431 236 24.5V48.5L242 45.5L248 48.5L254 45.5L260 48.5Z" stroke="#7E22CE" stroke-width="2" stroke-linecap="round" stroke-linejoin="round"/>
<path d="M311.5 38L320.5 29L311.5 38ZM312.25 29.75H312.265H312.25ZM319.75 37.25H319.765H319.75ZM326.5 48.5V24.5C326.5 22.8431 325.157 21.5 323.5 21.5H308.5C306.843 21.5 305.5 22.8431 305.5 24.5V48.5L310.75 45.5L316 48.5L321.25 45.5L326.5 48.5ZM313 29.75C313 30.1642 312.664 30.5 312.25 30.5C311.836 30.5 311.5 30.1642 311.5 29.75C311.5 29.3358 311.836 29 312.25 29C312.664 29 313 29.3358 313 29.75ZM320.5 37.25C320.5 37.6642 320.164 38 319.75 38C319.336 38 319 37.6642 319 37.25C319 36.8358 319.336 36.5 319.75 36.5C320.164 36.5 320.5 36.8358 320.5 37.25Z" stroke="#7E22CE" stroke-width="2" stroke-linecap="round" stroke-linejoin="round"/>
<path d="M395.128 39.5H388.5M372 23V30.5H372.872L372 23ZM395.907 33.5C395.169 27.5805 390.119 23 384 23C378.964 23 374.652 26.1023 372.872 30.5L395.907 33.5ZM372.872 30.5H379.5H372.872ZM396 47V39.5H395.128L396 47ZM395.128 39.5C393.348 43.8977 389.036 47 384 47C377.881 47 372.831 42.4195 372.093 36.5L395.128 39.5Z" stroke="#7E22CE" stroke-width="2" stroke-linecap="round" stroke-linejoin="round"/>
<path d="M438.5 32L447.5 23M438.5 32H453.5C460.127 32 465.5 37.3725 465.5 44V47L438.5 32ZM438.5 32L447.5 41L438.5 32Z" stroke="#7E22CE" stroke-width="2" stroke-linecap="round" stroke-linejoin="round"/>
<path d="M520.1 33.7998C519.3 34.3998 519.3 35.5998 520.1 36.1998L528.1 42.1998C529.089 42.9414 530.5 42.2358 530.5 40.9998V28.9998C530.5 27.7637 529.089 27.0582 528.1 27.7998L520.1 33.7998Z" stroke="#7E22CE" stroke-width="2" stroke-linecap="round" stroke-linejoin="round"/>
<path d="M508.1 33.7998C507.3 34.3998 507.3 35.5998 508.1 36.1998L516.1 42.1998C517.089 42.9414 518.5 42.2358 518.5 40.9998V28.9998C518.5 27.7637 517.089 27.0582 516.1 27.7998L508.1 33.7998Z" stroke="#7E22CE" stroke-width="2" stroke-linecap="round" stroke-linejoin="round"/>
<path d="M579 24.5C589.77 24.5 598.5 33.2305 598.5 44L579 24.5ZM579 33.5C584.799 33.5 589.5 38.201 589.5 44L579 33.5ZM580.5 44C580.5 44.8284 579.828 45.5 579 45.5C578.172 45.5 577.5 44.8284 577.5 44C577.5 43.1716 578.172 42.5 579 42.5C579.828 42.5 580.5 43.1716 580.5 44Z" stroke="#7E22CE" stroke-width="2" stroke-linecap="round" stroke-linejoin="round"/>
<path d="M656 38V23M650 27.5H645.5C643.843 27.5 642.5 28.8431 642.5 30.5V44C642.5 45.6569 643.843 47 645.5 47H666.5C668.157 47 669.5 45.6569 669.5 44V30.5C669.5 28.8431 668.157 27.5 666.5 27.5H662H650ZM660.5 33.5L656 38L660.5 33.5ZM656 38L651.5 33.5L656 38Z" stroke="#7E22CE" stroke-width="2" stroke-linecap="round" stroke-linejoin="round"/>
<path d="M47 103V89.5M51.5 109V112C51.5 113.657 50.1569 115 48.5 115H33.5C31.8431 115 30.5 113.657 30.5 112V101.5C30.5 99.8431 31.8431 98.5 33.5 98.5H36.5L51.5 109ZM41 92.5H39.5C37.8431 92.5 36.5 93.8431 36.5 95.5V106C36.5 107.657 37.8431 109 39.5 109H54.5C56.1569 109 57.5 107.657 57.5 106V95.5C57.5 93.8431 56.1569 92.5 54.5 92.5H53H41ZM51.5 98.5L47 103L51.5 98.5ZM47 103L42.5 98.5L47 103Z" stroke="#7E22CE" stroke-width="2" stroke-linecap="round" stroke-linejoin="round"/>
<path d="M112 116.5H116.5M98.5 94L103 95.5L98.5 94ZM103 95.5L98.5 109C101.159 111 104.843 111 107.502 109L103 95.5ZM103 95.5L107.5 109L103 95.5ZM103 95.5L112 92.5L103 95.5ZM121 95.5L125.5 94L121 95.5ZM121 95.5L116.5 109C119.159 111 122.843 111 125.502 109L121 95.5ZM121 95.5L125.5 109L121 95.5ZM121 95.5L112 92.5L121 95.5ZM112 89.5V92.5V89.5ZM112 116.5V92.5V116.5ZM112 116.5H107.5H112Z" stroke="#7E22CE" stroke-width="2" stroke-linecap="round" stroke-linejoin="round"/>
<path d="M183.182 106.182L190.5 113.5L183.182 106.182ZM180 103L190.5 92.5L180 103ZM180 103L175.682 107.318L180 103ZM180 103L175.682 98.682L180 103ZM175.682 107.318C174.868 106.504 173.743 106 172.5 106C170.015 106 168 108.015 168 110.5C168 112.985 170.015 115 172.5 115C174.985 115 177 112.985 177 110.5C177 109.257 176.496 108.132 175.682 107.318ZM175.682 98.682C176.496 97.8676 177 96.7426 177 95.5C177 93.0147 174.985 91 172.5 91C170.015 91 168 93.0147 168 95.5C168 97.9853 170.015 100 172.5 100C173.743 100 174.868 99.4963 175.682 98.682Z" stroke="#7E22CE" stroke-width="2" stroke-linecap="round" stroke-linejoin="round"/>
<path d="M261.5 116.5L252.5 107.5L261.5 116.5ZM255.5 100C255.5 105.799 250.799 110.5 245 110.5C239.201 110.5 234.5 105.799 234.5 100C234.5 94.201 239.201 89.5 245 89.5C250.799 89.5 255.5 94.201 255.5 100Z" stroke="#7E22CE" stroke-width="2" stroke-linecap="round" stroke-linejoin="round"/>
<path d="M310 109L314.318 104.682L310 109ZM314.318 104.682C315.132 105.496 316.257 106 317.5 106C319.985 106 322 103.985 322 101.5C322 99.0147 319.985 97 317.5 97C315.015 97 313 99.0147 313 101.5C313 102.743 313.504 103.868 314.318 104.682ZM329.5 103C329.5 110.456 323.456 116.5 316 116.5C308.544 116.5 302.5 110.456 302.5 103C302.5 95.5442 308.544 89.5 316 89.5C323.456 89.5 329.5 95.5442 329.5 103Z" stroke="#7E22CE" stroke-width="2" stroke-linecap="round" stroke-linejoin="round"/>
<path d="M390 107.5L384 113.5L378 107.5M378 98.5L384 92.5L390 98.5H378Z" stroke="#7E22CE" stroke-width="2" stroke-linecap="round" stroke-linejoin="round"/>
<path d="M459.5 109H459.515M441.5 103H462.5H441.5ZM441.5 103C439.843 103 438.5 101.657 438.5 100V94C438.5 92.3431 439.843 91 441.5 91H462.5C464.157 91 465.5 92.3431 465.5 94V100C465.5 101.657 464.157 103 462.5 103H441.5ZM441.5 103C439.843 103 438.5 104.343 438.5 106V112C438.5 113.657 439.843 115 441.5 115H462.5C464.157 115 465.5 113.657 465.5 112V106C465.5 104.343 464.157 103 462.5 103H441.5ZM459.5 97H459.515H459.5Z" stroke="#7E22CE" stroke-width="2" stroke-linecap="round" stroke-linejoin="round"/>
<path d="M515.026 105.013C515.329 104.407 515.5 103.724 515.5 103C515.5 102.276 515.329 101.593 515.026 100.987V105.013ZM515.026 105.013C514.287 106.488 512.762 107.5 511 107.5C508.515 107.5 506.5 105.485 506.5 103C506.5 100.515 508.515 98.5 511 98.5C512.762 98.5 514.287 99.5124 515.026 100.987V105.013ZM515.026 105.013L524.974 109.987L515.026 105.013ZM515.026 100.987L524.974 96.0129L515.026 100.987ZM524.974 96.0129C525.713 97.4876 527.238 98.5 529 98.5C531.485 98.5 533.5 96.4853 533.5 94C533.5 91.5147 531.485 89.5 529 89.5C526.515 89.5 524.5 91.5147 524.5 94C524.5 94.7236 524.671 95.4072 524.974 96.0129ZM524.974 109.987C524.671 110.593 524.5 111.276 524.5 112C524.5 114.485 526.515 116.5 529 116.5C531.485 116.5 533.5 114.485 533.5 112C533.5 109.515 531.485 107.5 529 107.5C527.238 107.5 525.713 108.512 524.974 109.987Z" stroke="#7E22CE" stroke-width="2" stroke-linecap="round" stroke-linejoin="round"/>
<path d="M583.5 103L586.5 106L592.5 100L583.5 103ZM600.927 93.9765C600.62 93.9921 600.311 93.9999 600 93.9999C595.39 93.9999 591.184 92.2668 588 89.4165C584.815 92.2667 580.61 93.9998 576 93.9998C575.689 93.9998 575.38 93.9919 575.073 93.9763C574.699 95.4217 574.5 96.9376 574.5 98.5C574.5 106.887 580.236 113.935 588 115.933C595.764 113.935 601.5 106.887 601.5 98.5C601.5 96.9377 601.301 95.4219 600.927 93.9765Z" stroke="#7E22CE" stroke-width="2" stroke-linecap="round" stroke-linejoin="round"/>
<path d="M668.927 93.9765C668.62 93.9921 668.311 93.9999 668 93.9999C663.39 93.9999 659.184 92.2668 656 89.4165C652.815 92.2667 648.61 93.9998 644 93.9998C643.689 93.9998 643.38 93.9919 643.073 93.9763C642.699 95.4217 642.5 96.9376 642.5 98.5C642.5 106.887 648.236 113.935 656 115.933C663.764 113.935 669.5 106.887 669.5 98.5C669.5 96.9377 669.301 95.4219 668.927 93.9765Z" stroke="#7E22CE" stroke-width="2" stroke-linecap="round" stroke-linejoin="round"/>
<path d="M656 107.5H656.015M656 98.5V101.5V98.5Z" stroke="#7E22CE" stroke-width="2" stroke-linecap="round" stroke-linejoin="round"/>
<path d="M50 169.5V163.5C50 160.186 47.3137 157.5 44 157.5C40.6863 157.5 38 160.186 38 163.5V169.5H50ZM33.5 166.5H54.5L56 184.5H32L33.5 166.5Z" stroke="#7E22CE" stroke-width="2" stroke-linecap="round" stroke-linejoin="round"/>
<path d="M98.5 157.5H101.5L102.1 160.5L98.5 157.5ZM104.5 172.5H119.5L125.5 160.5H102.1L104.5 172.5ZM104.5 172.5L102.1 160.5L104.5 172.5ZM104.5 172.5L101.061 175.939C100.116 176.884 100.785 178.5 102.121 178.5H119.5L104.5 172.5ZM119.5 178.5C117.843 178.5 116.5 179.843 116.5 181.5C116.5 183.157 117.843 184.5 119.5 184.5C121.157 184.5 122.5 183.157 122.5 181.5C122.5 179.843 121.157 178.5 119.5 178.5ZM107.5 181.5C107.5 183.157 106.157 184.5 104.5 184.5C102.843 184.5 101.5 183.157 101.5 181.5C101.5 179.843 102.843 178.5 104.5 178.5C106.157 178.5 107.5 179.843 107.5 181.5Z" stroke="#7E22CE" stroke-width="2" stroke-linecap="round" stroke-linejoin="round"/>
<path d="M187.5 165V183M166.5 159H186H166.5ZM166.5 165H180H166.5ZM166.5 171H175.5H166.5ZM181.5 171L187.5 165L181.5 171ZM187.5 165L193.5 171L187.5 165Z" stroke="#7E22CE" stroke-width="2" stroke-linecap="round" stroke-linejoin="round"/>
<path d="M255.5 183L261.5 177M234.5 159H254H234.5ZM234.5 165H248H234.5ZM234.5 171H248H234.5ZM255.5 165V183V165ZM255.5 183L249.5 177L255.5 183Z" stroke="#7E22CE" stroke-width="2" stroke-linecap="round" stroke-linejoin="round"/>
<path d="M305.5 157.5V163.5V157.5ZM302.5 160.5H308.5H302.5ZM307 178.5V184.5V178.5ZM304 181.5H310H304ZM317.5 157.5L320.929 167.786L329.5 171L320.929 174.214L317.5 184.5L314.071 174.214L305.5 171L314.071 167.786L317.5 157.5Z" stroke="#7E22CE" stroke-width="2" stroke-linecap="round" stroke-linejoin="round"/>
<path d="M382.5 161.823V181.86C382.5 183.318 381.318 184.5 379.86 184.5C378.745 184.5 377.75 183.799 377.374 182.748L374.155 173.524L382.5 161.823ZM393 172.5C395.485 172.5 397.5 170.485 397.5 168C397.5 165.515 395.485 163.5 393 163.5V172.5ZM374.155 173.524C372.006 172.611 370.5 170.481 370.5 168C370.5 164.686 373.186 162 376.5 162H379.248C385.399 162 390.685 160.149 393 157.5V178.5C390.685 175.851 385.399 174 379.248 174H376.5C375.668 174 374.875 173.831 374.155 173.524Z" stroke="#7E22CE" stroke-width="2" stroke-linecap="round" stroke-linejoin="round"/>
<path d="M450.573 157.391C451.022 156.009 452.978 156.009 453.427 157.391L455.705 164.402C455.905 165.02 456.481 165.438 457.131 165.438H464.503C465.956 165.438 466.56 167.298 465.384 168.152L459.421 172.484C458.895 172.866 458.675 173.543 458.876 174.161L461.154 181.172C461.603 182.554 460.021 183.703 458.845 182.849L452.882 178.516C452.356 178.134 451.644 178.134 451.118 178.516L445.155 182.849C443.979 183.703 442.397 182.554 442.846 181.172L445.124 174.161C445.325 173.543 445.105 172.866 444.579 172.484L438.616 168.152C437.44 167.298 438.044 165.438 439.498 165.438H446.869C447.519 165.438 448.095 165.02 448.296 164.402L450.573 157.391Z" stroke="#7E22CE" stroke-width="2" stroke-linecap="round" stroke-linejoin="round"/>
<path d="M518.939 169.939L521.061 172.061M529.546 161.454C534.818 166.726 534.818 175.274 529.546 180.546V161.454ZM529.546 180.546L525.303 176.303L529.546 180.546ZM529.546 180.546L533.5 184.5L529.546 180.546ZM525.303 165.697C528.232 168.626 528.232 173.374 525.303 176.303V165.697ZM525.303 176.303L521.061 172.061L525.303 176.303ZM514.697 176.303C513.503 175.109 512.795 173.613 512.575 172.06L514.697 176.303ZM510.454 180.546C506.706 176.798 505.623 171.394 507.204 166.689L510.454 180.546ZM518.939 169.939C519.211 169.668 519.586 169.5 520 169.5C520.828 169.5 521.5 170.172 521.5 171C521.5 171.414 521.332 171.789 521.061 172.061L518.939 169.939ZM518.939 169.939L506.5 157.5L518.939 169.939Z" stroke="#7E22CE" stroke-width="2" stroke-linecap="round" stroke-linejoin="round"/>
<path d="M578.454 180.546C573.182 175.274 573.182 166.726 578.454 161.454V180.546ZM597.546 161.454C602.818 166.726 602.818 175.274 597.546 180.546V161.454ZM582.697 176.303C579.768 173.374 579.768 168.626 582.697 165.697V176.303ZM593.303 165.697C596.232 168.626 596.232 173.374 593.303 176.303V165.697ZM589.5 171C589.5 171.828 588.828 172.5 588 172.5C587.172 172.5 586.5 171.828 586.5 171C586.5 170.172 587.172 169.5 588 169.5C588.828 169.5 589.5 170.172 589.5 171Z" stroke="#7E22CE" stroke-width="2" stroke-linecap="round" stroke-linejoin="round"/>
<path d="M669.5 171C669.5 178.456 663.456 184.5 656 184.5C648.544 184.5 642.5 178.456 642.5 171C642.5 163.544 648.544 157.5 656 157.5C663.456 157.5 669.5 163.544 669.5 171Z" stroke="#7E22CE" stroke-width="2" stroke-linecap="round" stroke-linejoin="round"/>
<path d="M651.5 168C651.5 167.172 652.172 166.5 653 166.5H659C659.828 166.5 660.5 167.172 660.5 168V174C660.5 174.828 659.828 175.5 659 175.5H653C652.172 175.5 651.5 174.828 651.5 174V168Z" stroke="#7E22CE" stroke-width="2" stroke-linecap="round" stroke-linejoin="round"/>
<path d="M44 225.5V227V225.5ZM44 251V252.5V251ZM57.5 239H56H57.5ZM32 239H30.5H32ZM53.546 248.546L52.4854 247.485L53.546 248.546ZM35.5147 230.515L34.4541 229.454L35.5147 230.515ZM53.546 229.454L52.4854 230.515L53.546 229.454ZM35.5148 247.485L34.4541 248.546L35.5148 247.485ZM50 239C50 242.314 47.3137 245 44 245C40.6863 245 38 242.314 38 239C38 235.686 40.6863 233 44 233C47.3137 233 50 235.686 50 239Z" stroke="#7E22CE" stroke-width="2" stroke-linecap="round" stroke-linejoin="round"/>
<path d="M121.546 229.454L116.243 234.757L121.546 229.454ZM116.243 243.243L121.546 248.546L116.243 243.243ZM107.757 234.757L102.454 229.454L107.757 234.757ZM107.757 243.243L102.454 248.546L107.757 243.243ZM125.5 239C125.5 246.456 119.456 252.5 112 252.5C104.544 252.5 98.5 246.456 98.5 239C98.5 231.544 104.544 225.5 112 225.5C119.456 225.5 125.5 231.544 125.5 239ZM118 239C118 242.314 115.314 245 112 245C108.686 245 106 242.314 106 239C106 235.686 108.686 233 112 233C115.314 233 118 235.686 118 239Z" stroke="#7E22CE" stroke-width="2" stroke-linecap="round" stroke-linejoin="round"/>
<path d="M168 246.5L174 240.5M174 231.5H192H174ZM192 231.5L186 225.5L192 231.5ZM192 231.5L186 237.5L192 231.5ZM186 246.5H168H186ZM168 246.5L174 252.5L168 246.5Z" stroke="#7E22CE" stroke-width="2" stroke-linecap="round" stroke-linejoin="round"/>
<path d="M255.5 251L249.5 245M240.5 245V227V245ZM240.5 227L234.5 233L240.5 227ZM240.5 227L246.5 233L240.5 227ZM255.5 233V251V233ZM255.5 251L261.5 245L255.5 251Z" stroke="#7E22CE" stroke-width="2" stroke-linecap="round" stroke-linejoin="round"/>
<path d="M302.5 236H329.5H302.5ZM302.5 242H329.5H302.5ZM316 236V248V236ZM305.5 248H326.5C328.157 248 329.5 246.657 329.5 245V233C329.5 231.343 328.157 230 326.5 230H305.5C303.843 230 302.5 231.343 302.5 233V245C302.5 246.657 303.843 248 305.5 248Z" stroke="#7E22CE" stroke-width="2" stroke-linecap="round" stroke-linejoin="round"/>
<path d="M376.5 231.5H376.515H376.5ZM376.5 225.5H384C384.768 225.5 385.536 225.793 386.121 226.379L396.621 236.879C397.793 238.05 397.793 239.95 396.621 241.121L386.121 251.621C384.95 252.793 383.05 252.793 381.879 251.621L371.379 241.121C370.793 240.536 370.5 239.768 370.5 239V231.5C370.5 228.186 373.186 225.5 376.5 225.5Z" stroke="#7E22CE" stroke-width="2" stroke-linecap="round" stroke-linejoin="round"/>
<path d="M440 228.5C440 227.672 440.672 227 441.5 227H462.5C463.328 227 464 227.672 464 228.5V231.5C464 232.328 463.328 233 462.5 233H441.5C440.672 233 440 232.328 440 231.5V228.5Z" stroke="#7E22CE" stroke-width="2" stroke-linecap="round" stroke-linejoin="round"/>
<path d="M440 240.5C440 239.672 440.672 239 441.5 239H450.5C451.328 239 452 239.672 452 240.5V249.5C452 250.328 451.328 251 450.5 251H441.5C440.672 251 440 250.328 440 249.5V240.5Z" stroke="#7E22CE" stroke-width="2" stroke-linecap="round" stroke-linejoin="round"/>
<path d="M458 240.5C458 239.672 458.672 239 459.5 239H462.5C463.328 239 464 239.672 464 240.5V249.5C464 250.328 463.328 251 462.5 251H459.5C458.672 251 458 250.328 458 249.5V240.5Z" stroke="#7E22CE" stroke-width="2" stroke-linecap="round" stroke-linejoin="round"/>
<path d="M514 234.5L518.5 239L514 243.5V234.5ZM521.5 243.5H526H521.5ZM509.5 251H530.5C532.157 251 533.5 249.657 533.5 248V230C533.5 228.343 532.157 227 530.5 227H509.5C507.843 227 506.5 228.343 506.5 230V248C506.5 249.657 507.843 251 509.5 251Z" stroke="#7E22CE" stroke-width="2" stroke-linecap="round" stroke-linejoin="round"/>
<path d="M595.5 227H598.5C600.157 227 601.5 228.343 601.5 230V239C601.5 240.657 600.157 242 598.5 242H594.75M585 242H577.854C575.624 242 574.173 239.653 575.171 237.658L580.421 227.158C580.929 226.142 581.968 225.5 583.104 225.5H589.131C589.376 225.5 589.62 225.53 589.858 225.59L595.5 227L585 242ZM585 242V249.5C585 251.157 586.343 252.5 588 252.5H588.143C588.892 252.5 589.5 251.893 589.5 251.143C589.5 250.072 589.817 249.024 590.411 248.133L595.5 240.5V227L585 242ZM585 242H588H585Z" stroke="#7E22CE" stroke-width="2" stroke-linecap="round" stroke-linejoin="round"/>
<path d="M648.5 251H645.5C643.843 251 642.5 249.657 642.5 248V239C642.5 237.343 643.843 236 645.5 236H649.25M659 236H666.146C668.376 236 669.827 238.347 668.829 240.342L663.579 250.842C663.071 251.858 662.032 252.5 660.896 252.5H654.869C654.624 252.5 654.38 252.47 654.142 252.41L648.5 251L659 236ZM659 236V228.5C659 226.843 657.657 225.5 656 225.5H655.857C655.108 225.5 654.5 226.107 654.5 226.857C654.5 227.928 654.183 228.976 653.588 229.867L648.5 237.5V251L659 236ZM659 236H656H659Z" stroke="#7E22CE" stroke-width="2" stroke-linecap="round" stroke-linejoin="round"/>
<path d="M63.792 139.768L52.056 134.56V132.736L63.792 126.856V129.976L56.112 133.528L63.792 136.648V139.768ZM69.651 124.624C70.995 124.624 72.043 125.096 72.795 126.04C73.547 126.968 73.923 128.28 73.923 129.976C73.923 131.672 73.571 133 72.867 133.96C72.163 134.904 71.091 135.376 69.651 135.376C68.339 135.376 67.315 134.904 66.579 133.96C65.843 133 65.475 131.672 65.475 129.976C65.475 128.28 65.819 126.968 66.507 126.04C67.211 125.096 68.259 124.624 69.651 124.624ZM82.227 124.864L72.723 142H69.603L79.107 124.864H82.227ZM69.699 127.264C69.331 127.264 69.067 127.504 68.907 127.984C68.763 128.448 68.691 129.12 68.691 130C68.691 130.896 68.763 131.584 68.907 132.064C69.067 132.544 69.331 132.784 69.699 132.784C70.067 132.784 70.323 132.544 70.467 132.064C70.627 131.584 70.707 130.896 70.707 130C70.707 129.12 70.627 128.448 70.467 127.984C70.323 127.504 70.067 127.264 69.699 127.264ZM82.131 131.464C83.475 131.464 84.523 131.936 85.275 132.88C86.027 133.808 86.403 135.12 86.403 136.816C86.403 138.496 86.051 139.816 85.347 140.776C84.643 141.736 83.571 142.216 82.131 142.216C80.819 142.216 79.795 141.736 79.059 140.776C78.323 139.816 77.955 138.496 77.955 136.816C77.955 135.12 78.299 133.808 78.987 132.88C79.691 131.936 80.739 131.464 82.131 131.464ZM82.179 134.08C81.811 134.08 81.547 134.32 81.387 134.8C81.243 135.264 81.171 135.944 81.171 136.84C81.171 137.72 81.243 138.4 81.387 138.88C81.547 139.36 81.811 139.6 82.179 139.6C82.531 139.6 82.787 139.368 82.947 138.904C83.107 138.424 83.187 137.736 83.187 136.84C83.187 135 82.851 134.08 82.179 134.08ZM88.0794 132.496V129.688H99.8394V132.496H88.0794ZM88.0794 137.416V134.584H99.8394V137.416H88.0794ZM112.917 126.952C112.917 127.752 112.893 128.472 112.845 129.112C112.797 129.736 112.757 130.192 112.725 130.48H112.941C113.357 129.792 113.877 129.304 114.501 129.016C115.141 128.728 115.861 128.584 116.661 128.584C117.573 128.584 118.381 128.752 119.085 129.088C119.805 129.424 120.365 129.944 120.765 130.648C121.165 131.352 121.365 132.272 121.365 133.408V142H117.309V134.536C117.309 132.696 116.685 131.776 115.437 131.776C114.477 131.776 113.813 132.144 113.445 132.88C113.093 133.6 112.917 134.632 112.917 135.976V142H108.861V123.76H112.917V126.952ZM130.463 128.584C132.319 128.584 133.791 129.096 134.879 130.12C135.967 131.128 136.511 132.616 136.511 134.584V136.456H128.183C128.215 137.32 128.495 138.008 129.023 138.52C129.551 139.032 130.303 139.288 131.279 139.288C132.111 139.288 132.871 139.208 133.559 139.048C134.263 138.888 134.983 138.632 135.719 138.28V141.28C135.063 141.616 134.367 141.856 133.631 142C132.911 142.16 132.015 142.24 130.943 142.24C129.615 142.24 128.431 142 127.391 141.52C126.367 141.04 125.559 140.304 124.967 139.312C124.391 138.304 124.103 137.032 124.103 135.496C124.103 133.944 124.367 132.656 124.895 131.632C125.423 130.608 126.159 129.848 127.103 129.352C128.063 128.84 129.183 128.584 130.463 128.584ZM130.535 131.392C129.911 131.392 129.391 131.592 128.975 131.992C128.575 132.376 128.335 132.992 128.255 133.84H132.791C132.775 133.152 132.583 132.576 132.215 132.112C131.847 131.632 131.287 131.392 130.535 131.392ZM146.892 128.584C147.1 128.584 147.332 128.6 147.588 128.632C147.844 128.648 148.044 128.672 148.188 128.704L147.852 132.496C147.708 132.464 147.524 132.44 147.3 132.424C147.076 132.392 146.828 132.376 146.556 132.376C146.044 132.376 145.532 132.456 145.02 132.616C144.524 132.776 144.108 133.08 143.772 133.528C143.452 133.96 143.292 134.584 143.292 135.4V142H139.236V128.824H142.284L142.908 130.984H143.076C143.46 130.328 143.988 129.768 144.66 129.304C145.332 128.824 146.076 128.584 146.892 128.584ZM162.094 135.376C162.094 137.584 161.51 139.28 160.342 140.464C159.19 141.648 157.606 142.24 155.59 142.24C154.342 142.24 153.23 141.976 152.254 141.448C151.294 140.904 150.534 140.128 149.974 139.12C149.43 138.096 149.158 136.848 149.158 135.376C149.158 133.2 149.734 131.528 150.886 130.36C152.054 129.176 153.646 128.584 155.662 128.584C156.91 128.584 158.014 128.848 158.974 129.376C159.95 129.904 160.71 130.672 161.254 131.68C161.814 132.688 162.094 133.92 162.094 135.376ZM153.262 135.376C153.262 136.608 153.446 137.544 153.814 138.184C154.182 138.808 154.79 139.12 155.638 139.12C156.47 139.12 157.07 138.808 157.438 138.184C157.806 137.544 157.99 136.608 157.99 135.376C157.99 134.16 157.806 133.248 157.438 132.64C157.07 132.016 156.462 131.704 155.614 131.704C154.782 131.704 154.182 132.016 153.814 132.64C153.446 133.248 153.262 134.16 153.262 135.376ZM166.94 123.592C167.516 123.592 168.02 123.72 168.452 123.976C168.884 124.232 169.1 124.728 169.1 125.464C169.1 126.184 168.884 126.68 168.452 126.952C168.02 127.208 167.516 127.336 166.94 127.336C166.332 127.336 165.812 127.208 165.38 126.952C164.964 126.68 164.756 126.184 164.756 125.464C164.756 124.728 164.964 124.232 165.38 123.976C165.812 123.72 166.332 123.592 166.94 123.592ZM168.932 128.824V142H164.9V128.824H168.932ZM178.087 142.24C176.103 142.24 174.551 141.704 173.431 140.632C172.311 139.544 171.751 137.824 171.751 135.472C171.751 133.872 172.031 132.568 172.591 131.56C173.167 130.536 173.959 129.784 174.967 129.304C175.975 128.824 177.127 128.584 178.423 128.584C179.287 128.584 180.063 128.672 180.751 128.848C181.455 129.024 182.079 129.248 182.623 129.52L181.447 132.568C180.887 132.328 180.367 132.144 179.887 132.016C179.407 131.872 178.919 131.8 178.423 131.8C177.607 131.8 176.975 132.104 176.527 132.712C176.079 133.32 175.855 134.232 175.855 135.448C175.855 136.68 176.087 137.584 176.551 138.16C177.015 138.72 177.647 139 178.447 139C179.151 139 179.807 138.904 180.415 138.712C181.039 138.504 181.631 138.216 182.191 137.848V141.16C181.647 141.512 181.055 141.784 180.415 141.976C179.775 142.152 178.999 142.24 178.087 142.24ZM197.32 135.376C197.32 137.584 196.736 139.28 195.568 140.464C194.416 141.648 192.832 142.24 190.816 142.24C189.568 142.24 188.456 141.976 187.48 141.448C186.52 140.904 185.76 140.128 185.2 139.12C184.656 138.096 184.384 136.848 184.384 135.376C184.384 133.2 184.96 131.528 186.112 130.36C187.28 129.176 188.872 128.584 190.888 128.584C192.136 128.584 193.24 128.848 194.2 129.376C195.176 129.904 195.936 130.672 196.48 131.68C197.04 132.688 197.32 133.92 197.32 135.376ZM188.488 135.376C188.488 136.608 188.672 137.544 189.04 138.184C189.408 138.808 190.016 139.12 190.864 139.12C191.696 139.12 192.296 138.808 192.664 138.184C193.032 137.544 193.216 136.608 193.216 135.376C193.216 134.16 193.032 133.248 192.664 132.64C192.296 132.016 191.688 131.704 190.84 131.704C190.008 131.704 189.408 132.016 189.04 132.64C188.672 133.248 188.488 134.16 188.488 135.376ZM207.951 128.584C209.343 128.584 210.463 128.968 211.311 129.736C212.175 130.488 212.607 131.712 212.607 133.408V142H208.575V134.536C208.575 133.624 208.423 132.936 208.119 132.472C207.815 132.008 207.335 131.776 206.679 131.776C205.703 131.776 205.039 132.144 204.687 132.88C204.335 133.6 204.159 134.64 204.159 136V142H200.103V128.824H203.175L203.727 130.528H203.919C204.335 129.888 204.895 129.408 205.599 129.088C206.303 128.752 207.087 128.584 207.951 128.584ZM231.443 124.864C231.219 125.888 230.995 126.976 230.771 128.128C230.563 129.28 230.403 130.304 230.291 131.2H226.667L226.499 130.936C226.643 130.36 226.827 129.72 227.051 129.016C227.275 128.296 227.515 127.576 227.771 126.856C228.027 126.12 228.291 125.456 228.563 124.864H231.443ZM225.731 124.864C225.507 125.888 225.283 126.976 225.059 128.128C224.851 129.28 224.691 130.304 224.579 131.2H220.955L220.787 130.936C220.931 130.36 221.115 129.72 221.339 129.016C221.563 128.296 221.803 127.576 222.059 126.856C222.331 126.12 222.595 125.456 222.851 124.864H225.731ZM238.468 128.56C240.18 128.56 241.508 128.96 242.452 129.76C243.396 130.56 243.868 131.728 243.868 133.264V142H241.06L240.268 140.224H240.172C239.612 140.944 239.02 141.464 238.396 141.784C237.772 142.088 236.916 142.24 235.828 142.24C234.66 142.24 233.692 141.896 232.924 141.208C232.156 140.52 231.772 139.456 231.772 138.016C231.772 136.624 232.26 135.592 233.236 134.92C234.228 134.232 235.676 133.848 237.58 133.768L239.836 133.696V133.312C239.836 132.672 239.668 132.208 239.332 131.92C239.012 131.632 238.564 131.488 237.988 131.488C237.412 131.488 236.812 131.584 236.188 131.776C235.564 131.952 234.932 132.176 234.292 132.448L233.068 129.76C233.788 129.376 234.604 129.08 235.516 128.872C236.428 128.664 237.412 128.56 238.468 128.56ZM238.612 136.048C237.604 136.08 236.9 136.264 236.5 136.6C236.1 136.92 235.9 137.36 235.9 137.92C235.9 138.416 236.044 138.776 236.332 139C236.62 139.224 236.988 139.336 237.436 139.336C238.108 139.336 238.676 139.136 239.14 138.736C239.604 138.32 239.836 137.76 239.836 137.056V136L238.612 136.048ZM254.939 128.584C255.147 128.584 255.379 128.6 255.635 128.632C255.891 128.648 256.091 128.672 256.235 128.704L255.899 132.496C255.755 132.464 255.571 132.44 255.347 132.424C255.123 132.392 254.875 132.376 254.603 132.376C254.091 132.376 253.579 132.456 253.067 132.616C252.571 132.776 252.155 133.08 251.819 133.528C251.499 133.96 251.339 134.584 251.339 135.4V142H247.283V128.824H250.331L250.955 130.984H251.123C251.507 130.328 252.035 129.768 252.707 129.304C253.379 128.824 254.123 128.584 254.939 128.584ZM266.001 128.584C266.209 128.584 266.441 128.6 266.697 128.632C266.953 128.648 267.153 128.672 267.297 128.704L266.961 132.496C266.817 132.464 266.633 132.44 266.409 132.424C266.185 132.392 265.937 132.376 265.665 132.376C265.153 132.376 264.641 132.456 264.129 132.616C263.633 132.776 263.217 133.08 262.881 133.528C262.561 133.96 262.401 134.584 262.401 135.4V142H258.345V128.824H261.393L262.017 130.984H262.185C262.569 130.328 263.097 129.768 263.769 129.304C264.441 128.824 265.185 128.584 266.001 128.584ZM281.203 135.376C281.203 137.584 280.619 139.28 279.451 140.464C278.299 141.648 276.715 142.24 274.699 142.24C273.451 142.24 272.339 141.976 271.363 141.448C270.403 140.904 269.643 140.128 269.083 139.12C268.539 138.096 268.267 136.848 268.267 135.376C268.267 133.2 268.843 131.528 269.995 130.36C271.163 129.176 272.755 128.584 274.771 128.584C276.019 128.584 277.123 128.848 278.083 129.376C279.059 129.904 279.819 130.672 280.363 131.68C280.923 132.688 281.203 133.92 281.203 135.376ZM272.371 135.376C272.371 136.608 272.555 137.544 272.923 138.184C273.291 138.808 273.899 139.12 274.747 139.12C275.579 139.12 276.179 138.808 276.547 138.184C276.915 137.544 277.099 136.608 277.099 135.376C277.099 134.16 276.915 133.248 276.547 132.64C276.179 132.016 275.571 131.704 274.723 131.704C273.891 131.704 273.291 132.016 272.923 132.64C272.555 133.248 272.371 134.16 272.371 135.376ZM293.429 136.84C293.349 136.568 293.261 136.2 293.165 135.736C293.069 135.272 292.965 134.784 292.853 134.272C292.741 133.76 292.645 133.296 292.565 132.88C292.485 132.448 292.421 132.128 292.373 131.92H292.277C292.245 132.128 292.181 132.448 292.085 132.88C292.005 133.296 291.909 133.768 291.797 134.296C291.685 134.808 291.573 135.304 291.461 135.784C291.365 136.248 291.285 136.64 291.221 136.96L290.021 142H285.725L282.053 128.824H286.037L287.357 134.296C287.453 134.68 287.541 135.144 287.621 135.688C287.717 136.232 287.797 136.768 287.861 137.296C287.941 137.824 287.997 138.264 288.029 138.616H288.101C288.117 138.344 288.149 138.016 288.197 137.632C288.261 137.232 288.325 136.832 288.389 136.432C288.469 136.016 288.541 135.648 288.605 135.328C288.669 135.008 288.709 134.792 288.725 134.68L290.165 128.824H294.629L295.973 134.704C296.021 134.96 296.093 135.336 296.189 135.832C296.285 136.312 296.365 136.808 296.429 137.32C296.509 137.832 296.565 138.264 296.597 138.616H296.669C296.701 138.28 296.749 137.848 296.813 137.32C296.893 136.776 296.981 136.232 297.077 135.688C297.173 135.144 297.269 134.68 297.365 134.296L298.733 128.824H302.669L298.949 142H294.605L293.429 136.84ZM303.554 137.2V133.936H309.986V137.2H303.554ZM320.001 128.584C320.209 128.584 320.441 128.6 320.697 128.632C320.953 128.648 321.153 128.672 321.297 128.704L320.961 132.496C320.817 132.464 320.633 132.44 320.409 132.424C320.185 132.392 319.937 132.376 319.665 132.376C319.153 132.376 318.641 132.456 318.129 132.616C317.633 132.776 317.217 133.08 316.881 133.528C316.561 133.96 316.401 134.584 316.401 135.4V142H312.345V128.824H315.393L316.017 130.984H316.185C316.569 130.328 317.097 129.768 317.769 129.304C318.441 128.824 319.185 128.584 320.001 128.584ZM325.472 123.592C326.048 123.592 326.552 123.72 326.984 123.976C327.416 124.232 327.632 124.728 327.632 125.464C327.632 126.184 327.416 126.68 326.984 126.952C326.552 127.208 326.048 127.336 325.472 127.336C324.864 127.336 324.344 127.208 323.912 126.952C323.496 126.68 323.288 126.184 323.288 125.464C323.288 124.728 323.496 124.232 323.912 123.976C324.344 123.72 324.864 123.592 325.472 123.592ZM327.464 128.824V142H323.432V128.824H327.464ZM335.203 128.584C336.067 128.584 336.803 128.752 337.411 129.088C338.019 129.424 338.523 129.888 338.923 130.48H339.019L339.331 128.824H342.787V142.024C342.787 143.896 342.219 145.32 341.083 146.296C339.963 147.272 338.267 147.76 335.995 147.76C335.003 147.76 334.107 147.704 333.307 147.592C332.507 147.48 331.723 147.28 330.955 146.992V143.704C331.771 144.04 332.571 144.288 333.355 144.448C334.139 144.624 335.019 144.712 335.995 144.712C337.835 144.712 338.755 143.872 338.755 142.192V141.928C338.755 141.704 338.763 141.448 338.779 141.16C338.811 140.856 338.843 140.568 338.875 140.296H338.755C338.371 140.92 337.875 141.4 337.267 141.736C336.675 142.072 335.963 142.24 335.131 142.24C333.643 142.24 332.459 141.648 331.579 140.464C330.715 139.28 330.283 137.6 330.283 135.424C330.283 133.232 330.723 131.544 331.603 130.36C332.499 129.176 333.699 128.584 335.203 128.584ZM336.619 131.776C335.131 131.776 334.387 133.016 334.387 135.496C334.387 136.728 334.571 137.64 334.939 138.232C335.323 138.808 335.899 139.096 336.667 139.096C337.515 139.096 338.123 138.848 338.491 138.352C338.859 137.856 339.043 137.04 339.043 135.904V135.4C339.043 134.168 338.859 133.256 338.491 132.664C338.139 132.072 337.515 131.776 336.619 131.776ZM350.315 126.952C350.315 127.752 350.291 128.472 350.243 129.112C350.195 129.736 350.155 130.192 350.123 130.48H350.339C350.755 129.792 351.275 129.304 351.899 129.016C352.539 128.728 353.259 128.584 354.059 128.584C354.971 128.584 355.779 128.752 356.483 129.088C357.203 129.424 357.763 129.944 358.163 130.648C358.563 131.352 358.763 132.272 358.763 133.408V142H354.707V134.536C354.707 132.696 354.083 131.776 352.835 131.776C351.875 131.776 351.211 132.144 350.843 132.88C350.491 133.6 350.315 134.632 350.315 135.976V142H346.259V123.76H350.315V126.952ZM368.149 139.024C368.549 139.024 368.925 138.984 369.277 138.904C369.645 138.824 370.013 138.72 370.381 138.592V141.568C369.949 141.76 369.453 141.92 368.893 142.048C368.333 142.176 367.669 142.24 366.901 142.24C366.085 142.24 365.357 142.112 364.717 141.856C364.093 141.584 363.597 141.128 363.229 140.488C362.877 139.848 362.701 138.944 362.701 137.776V131.848H361.021V130.168L363.037 128.872L364.141 126.088H366.733V128.824H370.237V131.848H366.733V137.632C366.733 138.096 366.861 138.448 367.117 138.688C367.373 138.912 367.717 139.024 368.149 139.024ZM382.641 125.128C382.497 125.704 382.313 126.352 382.089 127.072C381.865 127.792 381.617 128.512 381.345 129.232C381.089 129.952 380.833 130.608 380.577 131.2H377.673C377.913 130.192 378.137 129.112 378.345 127.96C378.569 126.792 378.737 125.76 378.849 124.864H382.473L382.641 125.128ZM376.929 125.128C376.785 125.704 376.601 126.352 376.377 127.072C376.153 127.792 375.913 128.512 375.657 129.232C375.401 129.952 375.137 130.608 374.865 131.2H371.985C372.209 130.192 372.425 129.112 372.633 127.96C372.857 126.792 373.025 125.76 373.137 124.864H376.761L376.929 125.128ZM388.562 139.144C388.418 139.72 388.234 140.368 388.01 141.088C387.786 141.808 387.546 142.528 387.29 143.248C387.034 143.968 386.77 144.624 386.498 145.216H383.618C383.842 144.192 384.058 143.104 384.266 141.952C384.49 140.8 384.658 139.776 384.77 138.88H388.394L388.562 139.144ZM401.25 142L396.234 128.824H400.458L402.858 136.456C402.938 136.728 403.01 137.064 403.074 137.464C403.154 137.848 403.202 138.2 403.218 138.52H403.314C403.33 138.184 403.37 137.832 403.434 137.464C403.514 137.096 403.602 136.768 403.698 136.48L406.146 128.824H410.346L405.33 142H401.25ZM417.976 128.56C419.688 128.56 421.016 128.96 421.96 129.76C422.904 130.56 423.376 131.728 423.376 133.264V142H420.568L419.776 140.224H419.68C419.12 140.944 418.528 141.464 417.904 141.784C417.28 142.088 416.424 142.24 415.336 142.24C414.168 142.24 413.2 141.896 412.432 141.208C411.664 140.52 411.28 139.456 411.28 138.016C411.28 136.624 411.768 135.592 412.744 134.92C413.736 134.232 415.184 133.848 417.088 133.768L419.344 133.696V133.312C419.344 132.672 419.176 132.208 418.84 131.92C418.52 131.632 418.072 131.488 417.496 131.488C416.92 131.488 416.32 131.584 415.696 131.776C415.072 131.952 414.44 132.176 413.8 132.448L412.576 129.76C413.296 129.376 414.112 129.08 415.024 128.872C415.936 128.664 416.92 128.56 417.976 128.56ZM418.12 136.048C417.112 136.08 416.408 136.264 416.008 136.6C415.608 136.92 415.408 137.36 415.408 137.92C415.408 138.416 415.552 138.776 415.84 139C416.128 139.224 416.496 139.336 416.944 139.336C417.616 139.336 418.184 139.136 418.648 138.736C419.112 138.32 419.344 137.76 419.344 137.056V136L418.12 136.048ZM434.447 128.584C434.655 128.584 434.887 128.6 435.143 128.632C435.399 128.648 435.599 128.672 435.743 128.704L435.407 132.496C435.263 132.464 435.079 132.44 434.855 132.424C434.631 132.392 434.383 132.376 434.111 132.376C433.599 132.376 433.087 132.456 432.575 132.616C432.079 132.776 431.663 133.08 431.327 133.528C431.007 133.96 430.847 134.584 430.847 135.4V142H426.791V128.824H429.839L430.463 130.984H430.631C431.015 130.328 431.543 129.768 432.215 129.304C432.887 128.824 433.631 128.584 434.447 128.584ZM439.917 123.592C440.493 123.592 440.997 123.72 441.429 123.976C441.861 124.232 442.077 124.728 442.077 125.464C442.077 126.184 441.861 126.68 441.429 126.952C440.997 127.208 440.493 127.336 439.917 127.336C439.309 127.336 438.789 127.208 438.357 126.952C437.941 126.68 437.733 126.184 437.733 125.464C437.733 124.728 437.941 124.232 438.357 123.976C438.789 123.72 439.309 123.592 439.917 123.592ZM441.909 128.824V142H437.877V128.824H441.909ZM451.304 128.56C453.016 128.56 454.344 128.96 455.288 129.76C456.232 130.56 456.704 131.728 456.704 133.264V142H453.896L453.104 140.224H453.008C452.448 140.944 451.856 141.464 451.232 141.784C450.608 142.088 449.752 142.24 448.664 142.24C447.496 142.24 446.528 141.896 445.76 141.208C444.992 140.52 444.608 139.456 444.608 138.016C444.608 136.624 445.096 135.592 446.072 134.92C447.064 134.232 448.512 133.848 450.416 133.768L452.672 133.696V133.312C452.672 132.672 452.504 132.208 452.168 131.92C451.848 131.632 451.4 131.488 450.824 131.488C450.248 131.488 449.648 131.584 449.024 131.776C448.4 131.952 447.768 132.176 447.128 132.448L445.904 129.76C446.624 129.376 447.44 129.08 448.352 128.872C449.264 128.664 450.248 128.56 451.304 128.56ZM451.448 136.048C450.44 136.08 449.736 136.264 449.336 136.6C448.936 136.92 448.736 137.36 448.736 137.92C448.736 138.416 448.88 138.776 449.168 139C449.456 139.224 449.824 139.336 450.272 139.336C450.944 139.336 451.512 139.136 451.976 138.736C452.44 138.32 452.672 137.76 452.672 137.056V136L451.448 136.048ZM467.967 128.584C469.359 128.584 470.479 128.968 471.327 129.736C472.191 130.488 472.623 131.712 472.623 133.408V142H468.591V134.536C468.591 133.624 468.439 132.936 468.135 132.472C467.831 132.008 467.351 131.776 466.695 131.776C465.719 131.776 465.055 132.144 464.703 132.88C464.351 133.6 464.175 134.64 464.175 136V142H460.119V128.824H463.191L463.743 130.528H463.935C464.351 129.888 464.911 129.408 465.615 129.088C466.319 128.752 467.103 128.584 467.967 128.584ZM482.009 139.024C482.409 139.024 482.785 138.984 483.137 138.904C483.505 138.824 483.873 138.72 484.241 138.592V141.568C483.809 141.76 483.313 141.92 482.753 142.048C482.193 142.176 481.529 142.24 480.761 142.24C479.945 142.24 479.217 142.112 478.577 141.856C477.953 141.584 477.457 141.128 477.089 140.488C476.737 139.848 476.561 138.944 476.561 137.776V131.848H474.881V130.168L476.897 128.872L478.001 126.088H480.593V128.824H484.097V131.848H480.593V137.632C480.593 138.096 480.721 138.448 480.977 138.688C481.233 138.912 481.577 139.024 482.009 139.024ZM486.216 130.72C486.216 129.952 486.432 129.408 486.864 129.088C487.312 128.768 487.848 128.608 488.472 128.608C489.08 128.608 489.6 128.768 490.032 129.088C490.464 129.408 490.68 129.952 490.68 130.72C490.68 131.472 490.464 132.016 490.032 132.352C489.6 132.672 489.08 132.832 488.472 132.832C487.848 132.832 487.312 132.672 486.864 132.352C486.432 132.016 486.216 131.472 486.216 130.72ZM486.216 140.2C486.216 139.416 486.432 138.872 486.864 138.568C487.312 138.248 487.848 138.088 488.472 138.088C489.08 138.088 489.6 138.248 490.032 138.568C490.464 138.872 490.68 139.416 490.68 140.2C490.68 140.952 490.464 141.496 490.032 141.832C489.6 142.152 489.08 142.312 488.472 142.312C487.848 142.312 487.312 142.152 486.864 141.832C486.432 141.496 486.216 140.952 486.216 140.2ZM509.061 124.864C508.837 125.888 508.613 126.976 508.389 128.128C508.181 129.28 508.021 130.304 507.909 131.2H504.285L504.117 130.936C504.261 130.36 504.445 129.72 504.669 129.016C504.893 128.296 505.133 127.576 505.389 126.856C505.645 126.12 505.909 125.456 506.181 124.864H509.061ZM503.349 124.864C503.125 125.888 502.901 126.976 502.677 128.128C502.469 129.28 502.309 130.304 502.197 131.2H498.573L498.405 130.936C498.549 130.36 498.733 129.72 498.957 129.016C499.181 128.296 499.421 127.576 499.677 126.856C499.949 126.12 500.213 125.456 500.469 124.864H503.349ZM521.976 135.376C521.976 137.584 521.392 139.28 520.224 140.464C519.072 141.648 517.488 142.24 515.472 142.24C514.224 142.24 513.112 141.976 512.136 141.448C511.176 140.904 510.416 140.128 509.856 139.12C509.312 138.096 509.04 136.848 509.04 135.376C509.04 133.2 509.616 131.528 510.768 130.36C511.936 129.176 513.528 128.584 515.544 128.584C516.792 128.584 517.896 128.848 518.856 129.376C519.832 129.904 520.592 130.672 521.136 131.68C521.696 132.688 521.976 133.92 521.976 135.376ZM513.144 135.376C513.144 136.608 513.328 137.544 513.696 138.184C514.064 138.808 514.672 139.12 515.52 139.12C516.352 139.12 516.952 138.808 517.32 138.184C517.688 137.544 517.872 136.608 517.872 135.376C517.872 134.16 517.688 133.248 517.32 132.64C516.952 132.016 516.344 131.704 515.496 131.704C514.664 131.704 514.064 132.016 513.696 132.64C513.328 133.248 513.144 134.16 513.144 135.376ZM537.215 128.824V142H534.143L533.615 140.32H533.375C532.959 140.992 532.391 141.48 531.671 141.784C530.951 142.088 530.183 142.24 529.367 142.24C528.007 142.24 526.887 141.856 526.007 141.088C525.143 140.32 524.711 139.096 524.711 137.416V128.824H528.767V136.288C528.767 137.184 528.911 137.864 529.199 138.328C529.503 138.792 529.983 139.024 530.639 139.024C531.615 139.024 532.279 138.664 532.631 137.944C532.983 137.224 533.159 136.184 533.159 134.824V128.824H537.215ZM546.649 139.024C547.049 139.024 547.425 138.984 547.777 138.904C548.145 138.824 548.513 138.72 548.881 138.592V141.568C548.449 141.76 547.953 141.92 547.393 142.048C546.833 142.176 546.169 142.24 545.401 142.24C544.585 142.24 543.857 142.112 543.217 141.856C542.593 141.584 542.097 141.128 541.729 140.488C541.377 139.848 541.201 138.944 541.201 137.776V131.848H539.521V130.168L541.537 128.872L542.641 126.088H545.233V128.824H548.737V131.848H545.233V137.632C545.233 138.096 545.361 138.448 545.617 138.688C545.873 138.912 546.217 139.024 546.649 139.024ZM555.44 142H551.384V123.76H555.44V142ZM560.972 123.592C561.548 123.592 562.052 123.72 562.484 123.976C562.916 124.232 563.132 124.728 563.132 125.464C563.132 126.184 562.916 126.68 562.484 126.952C562.052 127.208 561.548 127.336 560.972 127.336C560.364 127.336 559.844 127.208 559.412 126.952C558.996 126.68 558.788 126.184 558.788 125.464C558.788 124.728 558.996 124.232 559.412 123.976C559.844 123.72 560.364 123.592 560.972 123.592ZM562.964 128.824V142H558.932V128.824H562.964ZM574.303 128.584C575.695 128.584 576.815 128.968 577.663 129.736C578.527 130.488 578.959 131.712 578.959 133.408V142H574.927V134.536C574.927 133.624 574.775 132.936 574.471 132.472C574.167 132.008 573.687 131.776 573.031 131.776C572.055 131.776 571.391 132.144 571.039 132.88C570.687 133.6 570.511 134.64 570.511 136V142H566.455V128.824H569.527L570.079 130.528H570.271C570.687 129.888 571.247 129.408 571.951 129.088C572.655 128.752 573.439 128.584 574.303 128.584ZM588.057 128.584C589.913 128.584 591.385 129.096 592.473 130.12C593.561 131.128 594.105 132.616 594.105 134.584V136.456H585.777C585.809 137.32 586.089 138.008 586.617 138.52C587.145 139.032 587.897 139.288 588.873 139.288C589.705 139.288 590.465 139.208 591.153 139.048C591.857 138.888 592.577 138.632 593.313 138.28V141.28C592.657 141.616 591.961 141.856 591.225 142C590.505 142.16 589.609 142.24 588.537 142.24C587.209 142.24 586.025 142 584.985 141.52C583.961 141.04 583.153 140.304 582.561 139.312C581.985 138.304 581.697 137.032 581.697 135.496C581.697 133.944 581.961 132.656 582.489 131.632C583.017 130.608 583.753 129.848 584.697 129.352C585.657 128.84 586.777 128.584 588.057 128.584ZM588.129 131.392C587.505 131.392 586.985 131.592 586.569 131.992C586.169 132.376 585.929 132.992 585.849 133.84H590.385C590.369 133.152 590.177 132.576 589.809 132.112C589.441 131.632 588.881 131.392 588.129 131.392ZM605.883 125.128C605.739 125.704 605.555 126.352 605.331 127.072C605.107 127.792 604.859 128.512 604.587 129.232C604.331 129.952 604.075 130.608 603.819 131.2H600.915C601.155 130.192 601.379 129.112 601.587 127.96C601.811 126.792 601.979 125.76 602.091 124.864H605.715L605.883 125.128ZM600.171 125.128C600.027 125.704 599.843 126.352 599.619 127.072C599.395 127.792 599.155 128.512 598.899 129.232C598.643 129.952 598.379 130.608 598.107 131.2H595.227C595.451 130.192 595.667 129.112 595.875 127.96C596.099 126.792 596.267 125.76 596.379 124.864H600.003L600.171 125.128ZM617.151 124.624C618.495 124.624 619.543 125.096 620.295 126.04C621.047 126.968 621.423 128.28 621.423 129.976C621.423 131.672 621.071 133 620.367 133.96C619.663 134.904 618.591 135.376 617.151 135.376C615.839 135.376 614.815 134.904 614.079 133.96C613.343 133 612.975 131.672 612.975 129.976C612.975 128.28 613.319 126.968 614.007 126.04C614.711 125.096 615.759 124.624 617.151 124.624ZM629.727 124.864L620.223 142H617.103L626.607 124.864H629.727ZM617.199 127.264C616.831 127.264 616.567 127.504 616.407 127.984C616.263 128.448 616.191 129.12 616.191 130C616.191 130.896 616.263 131.584 616.407 132.064C616.567 132.544 616.831 132.784 617.199 132.784C617.567 132.784 617.823 132.544 617.967 132.064C618.127 131.584 618.207 130.896 618.207 130C618.207 129.12 618.127 128.448 617.967 127.984C617.823 127.504 617.567 127.264 617.199 127.264ZM629.631 131.464C630.975 131.464 632.023 131.936 632.775 132.88C633.527 133.808 633.903 135.12 633.903 136.816C633.903 138.496 633.551 139.816 632.847 140.776C632.143 141.736 631.071 142.216 629.631 142.216C628.319 142.216 627.295 141.736 626.559 140.776C625.823 139.816 625.455 138.496 625.455 136.816C625.455 135.12 625.799 133.808 626.487 132.88C627.191 131.936 628.239 131.464 629.631 131.464ZM629.679 134.08C629.311 134.08 629.047 134.32 628.887 134.8C628.743 135.264 628.671 135.944 628.671 136.84C628.671 137.72 628.743 138.4 628.887 138.88C629.047 139.36 629.311 139.6 629.679 139.6C630.031 139.6 630.287 139.368 630.447 138.904C630.607 138.424 630.687 137.736 630.687 136.84C630.687 135 630.351 134.08 629.679 134.08ZM635.579 136.648L643.259 133.528L635.579 129.976V126.856L647.315 132.736V134.56L635.579 139.768V136.648Z" fill="#E9D5FF"/>
<defs>
<filter id="filter0_dd" x="0" y="0" width="700" height="305" filterUnits="userSpaceOnUse" color-interpolation-filters="sRGB">
<feFlood flood-opacity="0" result="BackgroundImageFix"/>
<feColorMatrix in="SourceAlpha" type="matrix" values="0 0 0 0 0 0 0 0 0 0 0 0 0 0 0 0 0 0 127 0"/>
<feMorphology radius="5" operator="erode" in="SourceAlpha" result="effect1_dropShadow"/>
<feOffset dy="10"/>
<feGaussianBlur stdDeviation="5"/>
<feColorMatrix type="matrix" values="0 0 0 0 0 0 0 0 0 0 0 0 0 0 0 0 0 0 0.04 0"/>
<feBlend mode="normal" in2="BackgroundImageFix" result="effect1_dropShadow"/>
<feColorMatrix in="SourceAlpha" type="matrix" values="0 0 0 0 0 0 0 0 0 0 0 0 0 0 0 0 0 0 127 0"/>
<feMorphology radius="5" operator="erode" in="SourceAlpha" result="effect2_dropShadow"/>
<feOffset dy="20"/>
<feGaussianBlur stdDeviation="12.5"/>
<feColorMatrix type="matrix" values="0 0 0 0 0 0 0 0 0 0 0 0 0 0 0 0 0 0 0.1 0"/>
<feBlend mode="normal" in2="effect1_dropShadow" result="effect2_dropShadow"/>
<feBlend mode="normal" in="SourceGraphic" in2="effect2_dropShadow" result="shape"/>
</filter>
</defs>
</svg>
