<svg width="348" height="229" viewBox="0 0 348 229" fill="none" xmlns="http://www.w3.org/2000/svg">
<rect width="348" height="229" rx="8" fill="#301E4E"/>
<path fill-rule="evenodd" clip-rule="evenodd" d="M53.5674 33.1946V38.8951H56.5706V33.1946H58.9509V31.3633H51.1972V33.1946H53.5674V33.1946ZM60.4551 35.7876C60.4551 37.939 62.0106 39.0329 64.7598 39.0329H64.7649C67.3984 39.0329 69.0849 38.0321 69.0849 35.7673V31.3633H66.0824V35.6822C66.0824 36.6708 65.8183 37.157 64.7656 37.157C63.6963 37.157 63.4329 36.6708 63.4329 35.6944V31.3633H60.4551V35.7876V35.7876ZM71.1714 38.8951V31.3633H74.9242C77.6387 31.3633 78.7985 32.3357 78.7985 33.9441V33.9846C78.7985 35.5566 77.4919 36.4399 75.0559 36.4399H74.1443V38.8951H71.1714ZM74.7672 34.8395H74.1493V33.146H74.7824C75.5623 33.146 75.9675 33.3769 75.9675 33.9563V33.9968C75.9675 34.5559 75.5572 34.8395 74.7672 34.8395V34.8395ZM80.3482 38.8951V31.3633H83.3362V37.0517H86.7656V38.8951H80.3482V38.8951ZM88.4513 31.3633V38.8951H95.3542V37.0638H91.4292V35.9334H94.3767V34.2601H91.4292V33.1946H95.1415V31.3633H88.4513V31.3633Z" fill="#FF6E6C"/>
<path d="M28.6503 31.6023L40.805 28.3611V45.3776L28.6503 42.1364V31.6023Z" fill="#CB6664"/>
<path d="M24.5988 27.5506L36.7534 24.3093V41.3259L24.5988 38.0846V27.5506Z" fill="#FF6E6C"/>
<line x1="25.1518" y1="79.0312" x2="322.848" y2="79.0312" stroke="#C9BAE2" stroke-width="4" stroke-linecap="round"/>
<line x1="25.1518" y1="96.395" x2="312.719" y2="96.395" stroke="#C9BAE2" stroke-width="4" stroke-linecap="round"/>
<line x1="25.1518" y1="113.759" x2="316.337" y2="113.759" stroke="#C9BAE2" stroke-width="4" stroke-linecap="round"/>
<line x1="25.1518" y1="131.123" x2="305.484" y2="131.123" stroke="#C9BAE2" stroke-width="4" stroke-linecap="round"/>
<line x1="25.1518" y1="148.487" x2="160.786" y2="148.487" stroke="#C9BAE2" stroke-width="4" stroke-linecap="round"/>
<line x1="62.7734" y1="185.385" x2="94.2245" y2="185.385" stroke="#C9BAE2" stroke-width="4" stroke-linecap="round"/>
<line x1="62.7734" y1="196.96" x2="125.335" y2="196.96" stroke="#FF6E6C" stroke-width="4" stroke-linecap="round"/>
<circle cx="36.1746" cy="193.173" r="12.0229" stroke="#FF6E6C" stroke-width="2"/>
<path fill-rule="evenodd" clip-rule="evenodd" d="M46.5929 193.172C46.5929 195.936 45.4953 198.585 43.5415 200.539C41.5877 202.493 38.9377 203.591 36.1746 203.591C33.4115 203.591 30.7616 202.493 28.8078 200.539C26.854 198.585 25.7563 195.936 25.7563 193.172C25.7563 190.409 26.854 187.759 28.8078 185.806C30.7616 183.852 33.4115 182.754 36.1746 182.754C38.9377 182.754 41.5877 183.852 43.5415 185.806C45.4953 187.759 46.5929 190.409 46.5929 193.172V193.172ZM38.7792 189.266C38.7792 189.956 38.5048 190.619 38.0163 191.107C37.5279 191.596 36.8654 191.87 36.1746 191.87C35.4839 191.87 34.8214 191.596 34.3329 191.107C33.8445 190.619 33.5701 189.956 33.5701 189.266C33.5701 188.575 33.8445 187.912 34.3329 187.424C34.8214 186.935 35.4839 186.661 36.1746 186.661C36.8654 186.661 37.5279 186.935 38.0163 187.424C38.5048 187.912 38.7792 188.575 38.7792 189.266V189.266ZM36.1746 194.475C34.9278 194.474 33.7072 194.832 32.6577 195.505C31.6082 196.179 30.7741 197.139 30.2544 198.272C30.9872 199.125 31.8957 199.809 32.9175 200.277C33.9394 200.745 35.0505 200.987 36.1746 200.986C37.2988 200.987 38.4099 200.745 39.4317 200.277C40.4536 199.809 41.3621 199.125 42.0948 198.272C41.5752 197.139 40.741 196.179 39.6916 195.505C38.6421 194.832 37.4214 194.474 36.1746 194.475V194.475Z" fill="#58417D"/>
</svg>
