<svg width="696" height="230" viewBox="0 0 696 230" fill="none" xmlns="http://www.w3.org/2000/svg">
<rect width="696" height="229.347" rx="8" fill="#301E4E"/>
<line x1="348.5" y1="8.68188" x2="348.5" y2="220.665" stroke="#4C346B"/>
<path fill-rule="evenodd" clip-rule="evenodd" d="M53.5674 33.1946V38.8951H56.5706V33.1946H58.9509V31.3633H51.1972V33.1946H53.5674ZM60.4551 35.7876C60.4551 37.939 62.0106 39.0329 64.7598 39.0329H64.7649C67.3984 39.0329 69.0849 38.0321 69.0849 35.7673V31.3633H66.0824V35.6822C66.0824 36.6708 65.8183 37.157 64.7656 37.157C63.6963 37.157 63.4329 36.6708 63.4329 35.6944V31.3633H60.4551V35.7876ZM71.1714 38.8951V31.3633H74.9242C77.6387 31.3633 78.7985 32.3357 78.7985 33.9441V33.9846C78.7985 35.5566 77.4919 36.4399 75.0559 36.4399H74.1443V38.8951H71.1714ZM74.7672 34.8395H74.1493V33.146H74.7824C75.5623 33.146 75.9675 33.3769 75.9675 33.9563V33.9968C75.9675 34.5559 75.5572 34.8395 74.7672 34.8395ZM80.3482 38.8951V31.3633H83.3362V37.0517H86.7656V38.8951H80.3482ZM88.4513 31.3633V38.8951H95.3542V37.0638H91.4292V35.9334H94.3767V34.2601H91.4292V33.1946H95.1415V31.3633H88.4513Z" fill="#FF6E6C"/>
<path d="M28.6503 31.6023L40.805 28.3611V45.3776L28.6503 42.1364V31.6023Z" fill="#CB6664"/>
<path d="M24.5988 27.5506L36.7534 24.3093V41.3259L24.5988 38.0846V27.5506Z" fill="#FF6E6C"/>
<line x1="25.1518" y1="79.0312" x2="322.848" y2="79.0312" stroke="#C9BAE2" stroke-width="4" stroke-linecap="round"/>
<line x1="25.1518" y1="96.395" x2="312.719" y2="96.395" stroke="#C9BAE2" stroke-width="4" stroke-linecap="round"/>
<line x1="25.1518" y1="113.759" x2="316.337" y2="113.759" stroke="#C9BAE2" stroke-width="4" stroke-linecap="round"/>
<line x1="25.1518" y1="131.123" x2="305.484" y2="131.123" stroke="#C9BAE2" stroke-width="4" stroke-linecap="round"/>
<line x1="25.1518" y1="148.487" x2="160.786" y2="148.487" stroke="#C9BAE2" stroke-width="4" stroke-linecap="round"/>
<line x1="62.7734" y1="185.385" x2="94.2245" y2="185.385" stroke="#C9BAE2" stroke-width="4" stroke-linecap="round"/>
<line x1="62.7734" y1="196.96" x2="125.335" y2="196.96" stroke="#FF6E6C" stroke-width="4" stroke-linecap="round"/>
<circle cx="36.1746" cy="193.173" r="12.0229" stroke="#FF6E6C" stroke-width="2"/>
<path fill-rule="evenodd" clip-rule="evenodd" d="M46.5929 193.172C46.5929 195.936 45.4953 198.585 43.5415 200.539C41.5877 202.493 38.9377 203.591 36.1746 203.591C33.4115 203.591 30.7616 202.493 28.8078 200.539C26.854 198.585 25.7563 195.936 25.7563 193.172C25.7563 190.409 26.854 187.759 28.8078 185.806C30.7616 183.852 33.4115 182.754 36.1746 182.754C38.9377 182.754 41.5877 183.852 43.5415 185.806C45.4953 187.759 46.5929 190.409 46.5929 193.172ZM38.7792 189.266C38.7792 189.956 38.5048 190.619 38.0163 191.107C37.5279 191.596 36.8654 191.87 36.1746 191.87C35.4839 191.87 34.8214 191.596 34.3329 191.107C33.8445 190.619 33.5701 189.956 33.5701 189.266C33.5701 188.575 33.8445 187.912 34.3329 187.424C34.8214 186.935 35.4839 186.661 36.1746 186.661C36.8654 186.661 37.5279 186.935 38.0163 187.424C38.5048 187.912 38.7792 188.575 38.7792 189.266ZM36.1746 194.475C34.9278 194.474 33.7072 194.832 32.6577 195.505C31.6082 196.179 30.7741 197.139 30.2544 198.272C30.9872 199.125 31.8957 199.809 32.9175 200.277C33.9394 200.745 35.0505 200.987 36.1746 200.986C37.2988 200.987 38.4099 200.745 39.4317 200.277C40.4536 199.809 41.3621 199.125 42.0948 198.272C41.5752 197.139 40.741 196.179 39.6916 195.505C38.6421 194.832 37.4214 194.474 36.1746 194.475Z" fill="#58417D"/>
<g clip-path="url(#clip0)">
<path d="M458.759 43.6527C460.461 43.6527 461.937 42.7498 462.684 41.3954L460.739 40.2842C460.392 40.9961 459.645 41.4302 458.742 41.4302C457.405 41.4302 456.415 40.4404 456.415 39.0687C456.415 37.6796 457.405 36.6898 458.742 36.6898C459.628 36.6898 460.374 37.1413 460.722 37.8532L462.649 36.7246C461.937 35.3876 460.461 34.4846 458.759 34.4846C456.12 34.4846 454.175 36.4815 454.175 39.0687C454.175 41.6559 456.12 43.6527 458.759 43.6527ZM470.331 34.7277V35.7522C469.706 34.9708 468.768 34.4846 467.501 34.4846C465.191 34.4846 463.281 36.4815 463.281 39.0687C463.281 41.6559 465.191 43.6527 467.501 43.6527C468.768 43.6527 469.706 43.1665 470.331 42.3852V43.4096H472.571V34.7277H470.331ZM467.917 41.517C466.546 41.517 465.521 40.5272 465.521 39.0687C465.521 37.6101 466.546 36.6204 467.917 36.6204C469.307 36.6204 470.331 37.6101 470.331 39.0687C470.331 40.5272 469.307 41.517 467.917 41.517ZM479.568 36.8808V34.7277H477.606V32.2968L475.366 32.974V34.7277H473.855V36.8808H475.366V40.4925C475.366 42.8366 476.425 43.7569 479.568 43.4096V41.3781C478.283 41.4475 477.606 41.4302 477.606 40.4925V36.8808H479.568ZM482.259 33.6859C483.023 33.6859 483.648 33.0608 483.648 32.3142C483.648 31.5675 483.023 30.925 482.259 30.925C481.512 30.925 480.887 31.5675 480.887 32.3142C480.887 33.0608 481.512 33.6859 482.259 33.6859ZM481.147 43.4096H483.387V34.7277H481.147V43.4096ZM489.57 43.6527C492.123 43.6527 494.172 41.6559 494.172 39.0687C494.172 36.4815 492.123 34.4846 489.57 34.4846C487.018 34.4846 484.986 36.4815 484.986 39.0687C484.986 41.6559 487.018 43.6527 489.57 43.6527ZM489.57 41.4649C488.251 41.4649 487.226 40.4752 487.226 39.0687C487.226 37.6622 488.251 36.6725 489.57 36.6725C490.907 36.6725 491.932 37.6622 491.932 39.0687C491.932 40.4752 490.907 41.4649 489.57 41.4649ZM500.574 34.4846C499.411 34.4846 498.508 34.9187 497.987 35.7001V34.7277H495.747V43.4096H497.987V38.7214C497.987 37.2108 498.803 36.5683 499.897 36.5683C500.904 36.5683 501.616 37.176 501.616 38.3568V43.4096H503.856V38.0789C503.856 35.7696 502.415 34.4846 500.574 34.4846Z" fill="#FF6E6C"/>
<path d="M415.33 43.4096H418.057L420.331 35.3875L422.623 43.4096H425.349L428.753 31.2549H426.235L423.909 40.2667L421.356 31.2549H419.307L416.772 40.2667L414.446 31.2549H411.928L415.33 43.4096ZM433.136 43.6527C435.689 43.6527 437.738 41.6558 437.738 39.0686C437.738 36.4814 435.689 34.4846 433.136 34.4846C430.584 34.4846 428.552 36.4814 428.552 39.0686C428.552 41.6558 430.584 43.6527 433.136 43.6527ZM433.136 41.4648C431.817 41.4648 430.792 40.4751 430.792 39.0686C430.792 37.6621 431.817 36.6724 433.136 36.6724C434.473 36.6724 435.498 37.6621 435.498 39.0686C435.498 40.4751 434.473 41.4648 433.136 41.4648ZM441.553 36.2209V34.7276H439.313V43.4096H441.553V39.2596C441.553 37.4364 443.029 36.9155 444.193 37.0544V34.554C443.099 34.554 442.005 35.0402 441.553 36.2209ZM453.508 43.4096L449.913 39.0165L453.403 34.7276H450.729L447.743 38.5477V31.2549H445.503V43.4096H447.743V39.468L450.903 43.4096H453.508Z" fill="#FF6E6C"/>
<path fill-rule="evenodd" clip-rule="evenodd" d="M402.921 32.2708L397.352 29.0555V43.9921H403.863V45.439H372.029V43.9921H374.923V34.7892L372.226 35.4642L371.875 34.0607L387.134 30.2457H389.392C389.143 30.837 388.978 31.4601 388.9 32.0971L388.551 34.973L392.287 32.8155V43.9921H395.905V29.0563L390.337 32.2715C390.499 30.9224 391.161 29.6832 392.192 28.7987H389.212C389.764 28.0608 390.495 27.476 391.337 27.0996C392.178 26.7232 393.102 26.5677 394.02 26.6478L389.975 24.3123C390.749 23.9808 391.591 23.8344 392.432 23.8849C393.272 23.9354 394.09 24.1813 394.819 24.6032C395.571 25.0373 396.18 25.6233 396.628 26.3012C397.091 25.6024 397.71 25.0211 398.437 24.6032C399.166 24.1812 399.984 23.9352 400.825 23.8847C401.667 23.8342 402.508 23.9807 403.283 24.3123L399.236 26.6478C400.155 26.5676 401.078 26.7231 401.919 27.0995C402.761 27.4759 403.492 28.0607 404.045 28.7987H401.064C402.096 29.6828 402.759 30.9221 402.921 32.2715V32.2708ZM389.393 43.9921V36.7571H385.052V43.9921H389.393ZM381.435 38.2041C381.435 38.5879 381.282 38.9559 381.011 39.2273C380.74 39.4986 380.372 39.6511 379.988 39.6511C379.604 39.6511 379.236 39.4986 378.965 39.2273C378.693 38.9559 378.541 38.5879 378.541 38.2041C378.541 37.8203 378.693 37.4523 378.965 37.1809C379.236 36.9096 379.604 36.7571 379.988 36.7571C380.372 36.7571 380.74 36.9096 381.011 37.1809C381.282 37.4523 381.435 37.8203 381.435 38.2041Z" fill="#FF6E6C"/>
</g>
<line x1="373.152" y1="79.0312" x2="670.848" y2="79.0312" stroke="#C9BAE2" stroke-width="4" stroke-linecap="round"/>
<line x1="373.152" y1="96.395" x2="641.185" y2="96.395" stroke="#C9BAE2" stroke-width="4" stroke-linecap="round"/>
<line x1="373.152" y1="113.759" x2="653.484" y2="113.759" stroke="#C9BAE2" stroke-width="4" stroke-linecap="round"/>
<line x1="373.152" y1="131.123" x2="661.443" y2="131.123" stroke="#C9BAE2" stroke-width="4" stroke-linecap="round"/>
<line x1="373.152" y1="148.487" x2="560.877" y2="148.487" stroke="#C9BAE2" stroke-width="4" stroke-linecap="round"/>
<line x1="410.773" y1="185.385" x2="465.376" y2="185.385" stroke="#C9BAE2" stroke-width="4" stroke-linecap="round"/>
<line x1="410.773" y1="196.96" x2="483.464" y2="196.96" stroke="#FF6E6C" stroke-width="4" stroke-linecap="round"/>
<circle cx="384.175" cy="193.173" r="12.0229" stroke="#FF6E6C" stroke-width="2"/>
<path fill-rule="evenodd" clip-rule="evenodd" d="M394.593 193.172C394.593 195.936 393.495 198.585 391.541 200.539C389.588 202.493 386.938 203.591 384.175 203.591C381.412 203.591 378.762 202.493 376.808 200.539C374.854 198.585 373.756 195.936 373.756 193.172C373.756 190.409 374.854 187.759 376.808 185.806C378.762 183.852 381.412 182.754 384.175 182.754C386.938 182.754 389.588 183.852 391.541 185.806C393.495 187.759 394.593 190.409 394.593 193.172ZM386.779 189.266C386.779 189.956 386.505 190.619 386.016 191.107C385.528 191.596 384.865 191.87 384.175 191.87C383.484 191.87 382.821 191.596 382.333 191.107C381.844 190.619 381.57 189.956 381.57 189.266C381.57 188.575 381.844 187.912 382.333 187.424C382.821 186.935 383.484 186.661 384.175 186.661C384.865 186.661 385.528 186.935 386.016 187.424C386.505 187.912 386.779 188.575 386.779 189.266ZM384.175 194.475C382.928 194.474 381.707 194.832 380.658 195.505C379.608 196.179 378.774 197.139 378.254 198.272C378.987 199.125 379.896 199.809 380.918 200.277C381.939 200.745 383.051 200.987 384.175 200.986C385.299 200.987 386.41 200.745 387.432 200.277C388.454 199.809 389.362 199.125 390.095 198.272C389.575 197.139 388.741 196.179 387.692 195.505C386.642 194.832 385.421 194.474 384.175 194.475Z" fill="#58417D"/>
<defs>
<clipPath id="clip0">
<rect width="133.846" height="23.1518" fill="white" transform="translate(371.152 23.1519)"/>
</clipPath>
</defs>
</svg>
